<svg width="140" height="149" viewBox="0 0 140 149" fill="none" xmlns="http://www.w3.org/2000/svg">
<path d="M29.9442 38.1544C31.7293 45.2588 29.1354 59.0146 27.6154 65.0044C31.5187 80.3325 47.7093 66.4743 46.1029 59.6922C44.4964 52.9102 49.7528 37.5562 48.7229 35.7616C47.693 33.9669 52.3129 14.8114 45.4776 7.38818C38.6422 -0.0350868 23.7152 10.0228 23.4103 15.101C23.1054 20.1791 27.7129 29.2738 29.9442 38.1544Z" fill="#D0D784"/>
<path d="M79.3274 48.4527C75.0775 55.1176 63.133 63.7264 57.6919 67.1977C48.5547 81.6145 68.9274 82.5825 73.0443 76.2893C77.1613 69.9961 91.9438 62.0637 92.6617 59.9689C93.3797 57.8742 110.632 46.6017 112.02 36.1085C113.408 25.6153 96.671 22.6574 92.6624 26.2989C88.6537 29.9404 84.6397 40.1215 79.3274 48.4527Z" fill="#D0D784"/>
<path d="M101.286 105.089C93.7601 107.567 79.7733 106.455 73.7208 105.59C57.4774 110.986 70.2533 125.368 77.4287 123.098C84.604 120.828 99.9871 124.375 101.944 123.184C103.902 121.992 123.281 124.525 131.627 117.082C139.972 109.638 131.007 96.098 125.781 96.325C120.554 96.552 110.694 101.992 101.286 105.089Z" fill="#D0D784"/>
</svg>
