<svg width="321" height="433" viewBox="0 0 321 433" fill="none" xmlns="http://www.w3.org/2000/svg">
<path d="M122.542 101.918C71.2672 50.6431 0.00259611 38.7717 -36.622 75.3962M-36.622 75.3962C-73.2466 112.021 -61.3571 183.267 -10.1007 234.542M-36.622 75.3962C-32.2018 97.5153 -8.76565 145.669 49.6172 161.581M54.1817 357.027C91.8167 394.662 165.066 382.465 217.766 329.766C270.447 277.066 282.661 203.835 245.008 166.182C222.312 170.71 172.77 194.796 156.406 254.766C133.042 340.464 81.4247 347.916 54.1637 357.009M54.1998 357.045C16.5649 319.392 28.761 246.161 81.4607 193.461C134.16 140.779 207.392 128.565 245.045 166.218" stroke="#EFEBE6" stroke-opacity="0.55" stroke-width="7" stroke-linecap="round" stroke-linejoin="round"/>
</svg>
