<svg width="247" height="175" viewBox="0 0 247 175" fill="none" xmlns="http://www.w3.org/2000/svg">
<path d="M192.559 79.2598L213.757 81.7444C223.127 82.8427 231.426 86.2584 236.828 91.2402C242.23 96.222 244.293 102.362 242.562 108.309C240.832 114.256 235.45 119.523 227.601 122.951C219.751 126.38 210.078 127.689 200.707 126.591L179.509 124.106M192.559 79.2598C193.942 74.5061 190.081 69.6942 182.125 68.7616L10.3631 48.6294C8.6501 48.4286 6.89162 48.4439 5.18799 48.6745C3.48437 48.905 1.86898 49.3463 0.434044 49.973C-1.00089 50.5998 -2.22726 51.3998 -3.17504 52.3274C-4.12283 53.255 -4.77347 54.292 -5.08982 55.3791L-23.5601 118.855C-26.3288 128.37 -23.0285 138.193 -14.3852 146.164C-5.74184 154.135 7.5365 159.6 22.5288 161.357L107.321 171.296C122.314 173.053 137.792 170.959 150.351 165.473C162.91 159.987 171.521 151.56 174.289 142.045L179.509 124.106M192.559 79.2598L179.509 124.106M182.564 13.1621L146.47 36.757M140.168 8.19279L104.074 31.7877M97.7712 3.2235L61.6773 26.8184" stroke="#EFEBE6" stroke-width="6" stroke-linecap="round" stroke-linejoin="round"/>
</svg>
