<svg width="258" height="601" viewBox="0 0 258 601" fill="none" xmlns="http://www.w3.org/2000/svg">
<path d="M325.542 141.46C254.374 70.292 155.459 53.8145 104.625 104.649M104.625 104.649C53.7899 155.484 70.2924 254.373 141.436 325.542M104.625 104.649C110.76 135.35 143.289 202.186 224.324 224.273M230.659 495.55C282.896 547.786 384.565 530.858 457.712 457.712C530.834 384.565 547.787 282.921 495.525 230.659C464.023 236.944 395.258 270.375 372.545 353.613C340.116 472.561 268.472 482.903 230.634 495.524M230.684 495.575C178.447 443.313 195.376 341.668 268.522 268.522C341.669 195.4 443.313 178.447 495.575 230.709" stroke="#EFEBE6" stroke-width="7" stroke-linecap="round" stroke-linejoin="round"/>
</svg>
