<svg width="792" height="266" viewBox="0 0 792 266" fill="none" xmlns="http://www.w3.org/2000/svg">
<mask id="path-1-outside-1_23_2" maskUnits="userSpaceOnUse" x="180" y="120" width="499" height="104" fill="black">
<rect fill="white" x="180" y="120" width="499" height="104"/>
<path d="M202.064 164.008C203.6 159.912 206.117 156.84 209.616 154.792C213.2 152.744 217.168 151.72 221.52 151.72V170.152C216.485 169.555 211.963 170.579 207.952 173.224C204.027 175.869 202.064 180.264 202.064 186.408V217H185.552V153H202.064V164.008ZM247.874 191.784C250.093 199.805 256.109 203.816 265.922 203.816C272.237 203.816 277.015 201.683 280.258 197.416L293.57 205.096C287.255 214.227 277.954 218.792 265.666 218.792C255.085 218.792 246.594 215.592 240.194 209.192C233.794 202.792 230.594 194.728 230.594 185C230.594 175.357 233.751 167.336 240.066 160.936C246.381 154.451 254.487 151.208 264.386 151.208C273.773 151.208 281.495 154.451 287.554 160.936C293.698 167.421 296.77 175.443 296.77 185C296.77 187.133 296.557 189.395 296.13 191.784H247.874ZM247.618 178.984H280.258C279.319 174.632 277.357 171.389 274.37 169.256C271.469 167.123 268.141 166.056 264.386 166.056C259.949 166.056 256.279 167.208 253.378 169.512C250.477 171.731 248.557 174.888 247.618 178.984ZM382.981 153H400.517L380.165 217H364.421L352.645 178.216L340.869 217H325.125L304.773 153H322.309L333.189 192.296L344.837 153H360.453L372.101 192.424L382.981 153ZM448.969 141.48C439.924 140.797 435.401 144.424 435.401 152.36V153H448.969V168.872H435.401V217H418.889V168.872H409.673V153H418.889V152.36C418.889 143.315 421.406 136.445 426.441 131.752C431.476 127.059 438.985 125.011 448.969 125.608V141.48ZM473.234 191.784C475.453 199.805 481.469 203.816 491.282 203.816C497.597 203.816 502.375 201.683 505.618 197.416L518.93 205.096C512.615 214.227 503.314 218.792 491.026 218.792C480.445 218.792 471.954 215.592 465.554 209.192C459.154 202.792 455.954 194.728 455.954 185C455.954 175.357 459.111 167.336 465.426 160.936C471.741 154.451 479.847 151.208 489.746 151.208C499.133 151.208 506.855 154.451 512.914 160.936C519.058 167.421 522.13 175.443 522.13 185C522.13 187.133 521.917 189.395 521.49 191.784H473.234ZM472.978 178.984H505.618C504.679 174.632 502.717 171.389 499.73 169.256C496.829 167.123 493.501 166.056 489.746 166.056C485.309 166.056 481.639 167.208 478.738 169.512C475.837 171.731 473.917 174.888 472.978 178.984ZM551.509 171.176C551.509 172.883 552.618 174.291 554.837 175.4C557.141 176.424 559.914 177.363 563.157 178.216C566.4 178.984 569.642 180.008 572.885 181.288C576.128 182.483 578.858 184.531 581.077 187.432C583.381 190.333 584.533 193.96 584.533 198.312C584.533 204.883 582.058 209.96 577.109 213.544C572.245 217.043 566.144 218.792 558.805 218.792C545.664 218.792 536.704 213.715 531.925 203.56L546.261 195.496C548.138 201.043 552.32 203.816 558.805 203.816C564.693 203.816 567.637 201.981 567.637 198.312C567.637 196.605 566.485 195.24 564.181 194.216C561.962 193.107 559.232 192.125 555.989 191.272C552.746 190.419 549.504 189.352 546.261 188.072C543.018 186.792 540.245 184.787 537.941 182.056C535.722 179.24 534.613 175.741 534.613 171.56C534.613 165.245 536.917 160.296 541.525 156.712C546.218 153.043 552.021 151.208 558.933 151.208C564.138 151.208 568.874 152.403 573.141 154.792C577.408 157.096 580.778 160.424 583.253 164.776L569.173 172.456C567.125 168.104 563.712 165.928 558.933 165.928C556.8 165.928 555.008 166.397 553.557 167.336C552.192 168.275 551.509 169.555 551.509 171.176ZM635.005 168.872H620.541V195.496C620.541 197.715 621.096 199.336 622.205 200.36C623.314 201.384 624.936 201.981 627.069 202.152C629.202 202.237 631.848 202.195 635.005 202.024V217C623.656 218.28 615.634 217.213 610.941 213.8C606.333 210.387 604.029 204.285 604.029 195.496V168.872H592.893V153H604.029V140.072L620.541 135.08V153H635.005V168.872ZM670.047 215.464C667.914 217.597 665.354 218.664 662.367 218.664C659.38 218.664 656.82 217.597 654.687 215.464C652.554 213.331 651.487 210.771 651.487 207.784C651.487 204.797 652.554 202.237 654.687 200.104C656.82 197.971 659.38 196.904 662.367 196.904C665.354 196.904 667.914 197.971 670.047 200.104C672.18 202.237 673.247 204.797 673.247 207.784C673.247 210.771 672.18 213.331 670.047 215.464Z"/>
</mask>
<path d="M202.064 164.008C203.6 159.912 206.117 156.84 209.616 154.792C213.2 152.744 217.168 151.72 221.52 151.72V170.152C216.485 169.555 211.963 170.579 207.952 173.224C204.027 175.869 202.064 180.264 202.064 186.408V217H185.552V153H202.064V164.008ZM247.874 191.784C250.093 199.805 256.109 203.816 265.922 203.816C272.237 203.816 277.015 201.683 280.258 197.416L293.57 205.096C287.255 214.227 277.954 218.792 265.666 218.792C255.085 218.792 246.594 215.592 240.194 209.192C233.794 202.792 230.594 194.728 230.594 185C230.594 175.357 233.751 167.336 240.066 160.936C246.381 154.451 254.487 151.208 264.386 151.208C273.773 151.208 281.495 154.451 287.554 160.936C293.698 167.421 296.77 175.443 296.77 185C296.77 187.133 296.557 189.395 296.13 191.784H247.874ZM247.618 178.984H280.258C279.319 174.632 277.357 171.389 274.37 169.256C271.469 167.123 268.141 166.056 264.386 166.056C259.949 166.056 256.279 167.208 253.378 169.512C250.477 171.731 248.557 174.888 247.618 178.984ZM382.981 153H400.517L380.165 217H364.421L352.645 178.216L340.869 217H325.125L304.773 153H322.309L333.189 192.296L344.837 153H360.453L372.101 192.424L382.981 153ZM448.969 141.48C439.924 140.797 435.401 144.424 435.401 152.36V153H448.969V168.872H435.401V217H418.889V168.872H409.673V153H418.889V152.36C418.889 143.315 421.406 136.445 426.441 131.752C431.476 127.059 438.985 125.011 448.969 125.608V141.48ZM473.234 191.784C475.453 199.805 481.469 203.816 491.282 203.816C497.597 203.816 502.375 201.683 505.618 197.416L518.93 205.096C512.615 214.227 503.314 218.792 491.026 218.792C480.445 218.792 471.954 215.592 465.554 209.192C459.154 202.792 455.954 194.728 455.954 185C455.954 175.357 459.111 167.336 465.426 160.936C471.741 154.451 479.847 151.208 489.746 151.208C499.133 151.208 506.855 154.451 512.914 160.936C519.058 167.421 522.13 175.443 522.13 185C522.13 187.133 521.917 189.395 521.49 191.784H473.234ZM472.978 178.984H505.618C504.679 174.632 502.717 171.389 499.73 169.256C496.829 167.123 493.501 166.056 489.746 166.056C485.309 166.056 481.639 167.208 478.738 169.512C475.837 171.731 473.917 174.888 472.978 178.984ZM551.509 171.176C551.509 172.883 552.618 174.291 554.837 175.4C557.141 176.424 559.914 177.363 563.157 178.216C566.4 178.984 569.642 180.008 572.885 181.288C576.128 182.483 578.858 184.531 581.077 187.432C583.381 190.333 584.533 193.96 584.533 198.312C584.533 204.883 582.058 209.96 577.109 213.544C572.245 217.043 566.144 218.792 558.805 218.792C545.664 218.792 536.704 213.715 531.925 203.56L546.261 195.496C548.138 201.043 552.32 203.816 558.805 203.816C564.693 203.816 567.637 201.981 567.637 198.312C567.637 196.605 566.485 195.24 564.181 194.216C561.962 193.107 559.232 192.125 555.989 191.272C552.746 190.419 549.504 189.352 546.261 188.072C543.018 186.792 540.245 184.787 537.941 182.056C535.722 179.24 534.613 175.741 534.613 171.56C534.613 165.245 536.917 160.296 541.525 156.712C546.218 153.043 552.021 151.208 558.933 151.208C564.138 151.208 568.874 152.403 573.141 154.792C577.408 157.096 580.778 160.424 583.253 164.776L569.173 172.456C567.125 168.104 563.712 165.928 558.933 165.928C556.8 165.928 555.008 166.397 553.557 167.336C552.192 168.275 551.509 169.555 551.509 171.176ZM635.005 168.872H620.541V195.496C620.541 197.715 621.096 199.336 622.205 200.36C623.314 201.384 624.936 201.981 627.069 202.152C629.202 202.237 631.848 202.195 635.005 202.024V217C623.656 218.28 615.634 217.213 610.941 213.8C606.333 210.387 604.029 204.285 604.029 195.496V168.872H592.893V153H604.029V140.072L620.541 135.08V153H635.005V168.872ZM670.047 215.464C667.914 217.597 665.354 218.664 662.367 218.664C659.38 218.664 656.82 217.597 654.687 215.464C652.554 213.331 651.487 210.771 651.487 207.784C651.487 204.797 652.554 202.237 654.687 200.104C656.82 197.971 659.38 196.904 662.367 196.904C665.354 196.904 667.914 197.971 670.047 200.104C672.18 202.237 673.247 204.797 673.247 207.784C673.247 210.771 672.18 213.331 670.047 215.464Z" fill="white"/>
<path d="M202.064 164.008H197.064C197.064 166.425 198.793 168.496 201.172 168.928C203.55 169.359 205.897 168.027 206.746 165.764L202.064 164.008ZM209.616 154.792L207.135 150.451C207.12 150.459 207.105 150.468 207.09 150.477L209.616 154.792ZM221.52 151.72H226.52C226.52 148.959 224.281 146.72 221.52 146.72V151.72ZM221.52 170.152L220.931 175.117C222.35 175.285 223.773 174.839 224.841 173.89C225.909 172.941 226.52 171.581 226.52 170.152H221.52ZM207.952 173.224L205.199 169.05C205.185 169.059 205.171 169.068 205.158 169.078L207.952 173.224ZM202.064 217V222C204.825 222 207.064 219.761 207.064 217H202.064ZM185.552 217H180.552C180.552 219.761 182.791 222 185.552 222V217ZM185.552 153V148C182.791 148 180.552 150.239 180.552 153H185.552ZM202.064 153H207.064C207.064 150.239 204.825 148 202.064 148V153ZM206.746 165.764C207.913 162.652 209.715 160.528 212.142 159.107L207.09 150.477C202.519 153.152 199.287 157.172 197.382 162.252L206.746 165.764ZM212.097 159.133C214.884 157.541 217.989 156.72 221.52 156.72V146.72C216.347 146.72 211.516 147.947 207.135 150.451L212.097 159.133ZM216.52 151.72V170.152H226.52V151.72H216.52ZM222.109 165.187C215.972 164.459 210.253 165.717 205.199 169.05L210.705 177.398C213.673 175.441 216.999 174.651 220.931 175.117L222.109 165.187ZM205.158 169.078C199.45 172.924 197.064 179.154 197.064 186.408H207.064C207.064 181.374 208.603 178.815 210.746 177.37L205.158 169.078ZM197.064 186.408V217H207.064V186.408H197.064ZM202.064 212H185.552V222H202.064V212ZM190.552 217V153H180.552V217H190.552ZM185.552 158H202.064V148H185.552V158ZM197.064 153V164.008H207.064V153H197.064ZM247.874 191.784V186.784C246.312 186.784 244.841 187.514 243.895 188.756C242.949 189.999 242.639 191.612 243.055 193.117L247.874 191.784ZM280.258 197.416L282.757 193.085C280.576 191.827 277.8 192.386 276.277 194.391L280.258 197.416ZM293.57 205.096L297.682 207.94C298.477 206.791 298.755 205.362 298.448 203.999C298.142 202.636 297.279 201.463 296.069 200.765L293.57 205.096ZM240.194 209.192L236.658 212.728L236.658 212.728L240.194 209.192ZM240.066 160.936L243.625 164.448C243.633 164.44 243.641 164.432 243.648 164.424L240.066 160.936ZM287.554 160.936L283.9 164.349C283.908 164.358 283.916 164.366 283.924 164.375L287.554 160.936ZM296.13 191.784V196.784C298.552 196.784 300.626 195.048 301.052 192.663L296.13 191.784ZM247.618 178.984L242.744 177.867C242.404 179.351 242.759 180.909 243.707 182.1C244.656 183.29 246.096 183.984 247.618 183.984V178.984ZM280.258 178.984V183.984C281.769 183.984 283.199 183.301 284.148 182.125C285.098 180.949 285.464 179.407 285.146 177.93L280.258 178.984ZM274.37 169.256L271.408 173.284C271.427 173.298 271.445 173.311 271.464 173.325L274.37 169.256ZM253.378 169.512L256.415 173.484C256.439 173.465 256.464 173.447 256.487 173.428L253.378 169.512ZM243.055 193.117C244.433 198.1 247.12 202.197 251.276 204.968C255.351 207.685 260.372 208.816 265.922 208.816V198.816C261.659 198.816 258.765 197.942 256.824 196.648C254.964 195.408 253.534 193.49 252.693 190.451L243.055 193.117ZM265.922 208.816C273.485 208.816 279.875 206.183 284.239 200.441L276.277 194.391C274.155 197.183 270.988 198.816 265.922 198.816V208.816ZM277.759 201.747L291.071 209.427L296.069 200.765L282.757 193.085L277.759 201.747ZM289.458 202.252C284.188 209.872 276.518 213.792 265.666 213.792V223.792C279.39 223.792 290.323 218.581 297.682 207.94L289.458 202.252ZM265.666 213.792C256.169 213.792 249.034 210.961 243.73 205.656L236.658 212.728C244.154 220.223 254.001 223.792 265.666 223.792V213.792ZM243.73 205.656C238.342 200.269 235.594 193.512 235.594 185H225.594C225.594 195.944 229.246 205.315 236.658 212.728L243.73 205.656ZM235.594 185C235.594 176.567 238.305 169.84 243.625 164.448L236.507 157.424C229.198 164.832 225.594 174.148 225.594 185H235.594ZM243.648 164.424C248.929 159.001 255.697 156.208 264.386 156.208V146.208C253.278 146.208 243.833 149.9 236.484 157.448L243.648 164.424ZM264.386 156.208C272.477 156.208 278.847 158.94 283.9 164.349L291.208 157.523C284.144 149.962 275.068 146.208 264.386 146.208V156.208ZM283.924 164.375C289.123 169.862 291.77 176.624 291.77 185H301.77C301.77 174.261 298.273 164.98 291.184 157.497L283.924 164.375ZM291.77 185C291.77 186.802 291.59 188.767 291.208 190.905L301.052 192.663C301.524 190.022 301.77 187.465 301.77 185H291.77ZM296.13 186.784H247.874V196.784H296.13V186.784ZM247.618 183.984H280.258V173.984H247.618V183.984ZM285.146 177.93C284.003 172.634 281.481 168.191 277.276 165.187L271.464 173.325C273.232 174.588 274.635 176.63 275.37 180.038L285.146 177.93ZM277.332 165.228C273.534 162.435 269.158 161.056 264.386 161.056V171.056C267.124 171.056 269.404 171.81 271.408 173.284L277.332 165.228ZM264.386 161.056C259.051 161.056 254.22 162.459 250.269 165.596L256.487 173.428C258.339 171.957 260.846 171.056 264.386 171.056V161.056ZM250.341 165.54C246.376 168.572 243.902 172.815 242.744 177.867L252.492 180.101C253.211 176.961 254.577 174.889 256.415 173.484L250.341 165.54ZM382.981 153V148C380.732 148 378.76 149.502 378.161 151.67L382.981 153ZM400.517 153L405.282 154.515C405.765 152.995 405.494 151.336 404.553 150.048C403.611 148.761 402.112 148 400.517 148V153ZM380.165 217V222C382.343 222 384.27 220.591 384.93 218.515L380.165 217ZM364.421 217L359.637 218.453C360.276 220.56 362.219 222 364.421 222V217ZM352.645 178.216L357.429 176.763C356.79 174.656 354.847 173.216 352.645 173.216C350.443 173.216 348.5 174.656 347.861 176.763L352.645 178.216ZM340.869 217V222C343.071 222 345.014 220.56 345.653 218.453L340.869 217ZM325.125 217L320.36 218.515C321.02 220.591 322.947 222 325.125 222V217ZM304.773 153V148C303.178 148 301.679 148.761 300.737 150.048C299.796 151.336 299.525 152.995 300.008 154.515L304.773 153ZM322.309 153L327.128 151.666C326.528 149.5 324.557 148 322.309 148V153ZM333.189 192.296L328.37 193.63C328.966 195.78 330.913 197.276 333.144 197.296C335.375 197.316 337.349 195.856 337.983 193.717L333.189 192.296ZM344.837 153V148C342.623 148 340.672 149.456 340.043 151.579L344.837 153ZM360.453 153L365.248 151.583C364.62 149.458 362.669 148 360.453 148V153ZM372.101 192.424L367.306 193.841C367.938 195.982 369.914 197.444 372.146 197.424C374.378 197.404 376.327 195.906 376.921 193.754L372.101 192.424ZM382.981 158H400.517V148H382.981V158ZM395.752 151.485L375.4 215.485L384.93 218.515L405.282 154.515L395.752 151.485ZM380.165 212H364.421V222H380.165V212ZM369.205 215.547L357.429 176.763L347.861 179.669L359.637 218.453L369.205 215.547ZM347.861 176.763L336.085 215.547L345.653 218.453L357.429 179.669L347.861 176.763ZM340.869 212H325.125V222H340.869V212ZM329.89 215.485L309.538 151.485L300.008 154.515L320.36 218.515L329.89 215.485ZM304.773 158H322.309V148H304.773V158ZM317.49 154.334L328.37 193.63L338.008 190.962L327.128 151.666L317.49 154.334ZM337.983 193.717L349.631 154.421L340.043 151.579L328.395 190.875L337.983 193.717ZM344.837 158H360.453V148H344.837V158ZM355.658 154.417L367.306 193.841L376.896 191.007L365.248 151.583L355.658 154.417ZM376.921 193.754L387.801 154.33L378.161 151.67L367.281 191.094L376.921 193.754ZM448.969 141.48L448.593 146.466C449.98 146.571 451.349 146.092 452.369 145.146C453.389 144.2 453.969 142.871 453.969 141.48H448.969ZM435.401 153H430.401C430.401 155.761 432.64 158 435.401 158V153ZM448.969 153H453.969C453.969 150.239 451.73 148 448.969 148V153ZM448.969 168.872V173.872C451.73 173.872 453.969 171.633 453.969 168.872H448.969ZM435.401 168.872V163.872C432.64 163.872 430.401 166.111 430.401 168.872H435.401ZM435.401 217V222C438.162 222 440.401 219.761 440.401 217H435.401ZM418.889 217H413.889C413.889 219.761 416.128 222 418.889 222V217ZM418.889 168.872H423.889C423.889 166.111 421.65 163.872 418.889 163.872V168.872ZM409.673 168.872H404.673C404.673 171.633 406.912 173.872 409.673 173.872V168.872ZM409.673 153V148C406.912 148 404.673 150.239 404.673 153H409.673ZM418.889 153V158C421.65 158 423.889 155.761 423.889 153H418.889ZM426.441 131.752L429.85 135.409L429.85 135.409L426.441 131.752ZM448.969 125.608H453.969C453.969 122.963 451.908 120.775 449.268 120.617L448.969 125.608ZM449.345 136.494C444.245 136.109 439.345 136.836 435.665 139.787C431.824 142.868 430.401 147.469 430.401 152.36H440.401C440.401 149.315 441.24 148.135 441.921 147.589C442.763 146.913 444.647 146.168 448.593 146.466L449.345 136.494ZM430.401 152.36V153H440.401V152.36H430.401ZM435.401 158H448.969V148H435.401V158ZM443.969 153V168.872H453.969V153H443.969ZM448.969 163.872H435.401V173.872H448.969V163.872ZM430.401 168.872V217H440.401V168.872H430.401ZM435.401 212H418.889V222H435.401V212ZM423.889 217V168.872H413.889V217H423.889ZM418.889 163.872H409.673V173.872H418.889V163.872ZM414.673 168.872V153H404.673V168.872H414.673ZM409.673 158H418.889V148H409.673V158ZM423.889 153V152.36H413.889V153H423.889ZM423.889 152.36C423.889 144.244 426.122 138.885 429.85 135.409L423.032 128.095C416.69 134.006 413.889 142.385 413.889 152.36H423.889ZM429.85 135.409C433.503 132.004 439.428 130.046 448.67 130.599L449.268 120.617C438.542 119.975 429.448 122.113 423.032 128.095L429.85 135.409ZM443.969 125.608V141.48H453.969V125.608H443.969ZM473.234 191.784V186.784C471.672 186.784 470.201 187.514 469.255 188.756C468.309 189.999 467.999 191.612 468.415 193.117L473.234 191.784ZM505.618 197.416L508.117 193.085C505.936 191.827 503.16 192.386 501.637 194.391L505.618 197.416ZM518.93 205.096L523.042 207.94C523.837 206.791 524.115 205.362 523.808 203.999C523.502 202.636 522.639 201.463 521.429 200.765L518.93 205.096ZM465.554 209.192L462.018 212.728L462.018 212.728L465.554 209.192ZM465.426 160.936L468.985 164.448C468.993 164.44 469.001 164.432 469.008 164.424L465.426 160.936ZM512.914 160.936L509.26 164.349C509.268 164.358 509.276 164.366 509.284 164.375L512.914 160.936ZM521.49 191.784V196.784C523.912 196.784 525.986 195.048 526.412 192.663L521.49 191.784ZM472.978 178.984L468.104 177.867C467.764 179.351 468.119 180.909 469.067 182.1C470.016 183.29 471.456 183.984 472.978 183.984V178.984ZM505.618 178.984V183.984C507.129 183.984 508.559 183.301 509.508 182.125C510.458 180.949 510.824 179.407 510.506 177.93L505.618 178.984ZM499.73 169.256L496.768 173.284C496.787 173.298 496.805 173.311 496.824 173.325L499.73 169.256ZM478.738 169.512L481.775 173.484C481.799 173.465 481.824 173.447 481.847 173.428L478.738 169.512ZM468.415 193.117C469.793 198.1 472.48 202.197 476.637 204.968C480.711 207.685 485.732 208.816 491.282 208.816V198.816C487.019 198.816 484.125 197.942 482.184 196.648C480.324 195.408 478.894 193.49 478.053 190.451L468.415 193.117ZM491.282 208.816C498.845 208.816 505.235 206.183 509.599 200.441L501.637 194.391C499.515 197.183 496.348 198.816 491.282 198.816V208.816ZM503.119 201.747L516.431 209.427L521.429 200.765L508.117 193.085L503.119 201.747ZM514.818 202.252C509.548 209.872 501.878 213.792 491.026 213.792V223.792C504.75 223.792 515.683 218.581 523.042 207.94L514.818 202.252ZM491.026 213.792C481.529 213.792 474.394 210.961 469.09 205.656L462.018 212.728C469.514 220.223 479.361 223.792 491.026 223.792V213.792ZM469.09 205.656C463.702 200.269 460.954 193.512 460.954 185H450.954C450.954 195.944 454.606 205.315 462.018 212.728L469.09 205.656ZM460.954 185C460.954 176.567 463.665 169.84 468.985 164.448L461.867 157.424C454.558 164.832 450.954 174.148 450.954 185H460.954ZM469.008 164.424C474.289 159.001 481.057 156.208 489.746 156.208V146.208C478.638 146.208 469.193 149.9 461.844 157.448L469.008 164.424ZM489.746 156.208C497.837 156.208 504.207 158.94 509.26 164.349L516.568 157.523C509.504 149.962 500.428 146.208 489.746 146.208V156.208ZM509.284 164.375C514.483 169.862 517.13 176.624 517.13 185H527.13C527.13 174.261 523.633 164.98 516.544 157.497L509.284 164.375ZM517.13 185C517.13 186.802 516.95 188.767 516.568 190.905L526.412 192.663C526.884 190.022 527.13 187.465 527.13 185H517.13ZM521.49 186.784H473.234V196.784H521.49V186.784ZM472.978 183.984H505.618V173.984H472.978V183.984ZM510.506 177.93C509.363 172.634 506.841 168.191 502.636 165.187L496.824 173.325C498.592 174.588 499.995 176.63 500.73 180.038L510.506 177.93ZM502.692 165.228C498.894 162.435 494.518 161.056 489.746 161.056V171.056C492.484 171.056 494.764 171.81 496.768 173.284L502.692 165.228ZM489.746 161.056C484.411 161.056 479.58 162.459 475.629 165.596L481.847 173.428C483.699 171.957 486.207 171.056 489.746 171.056V161.056ZM475.701 165.54C471.736 168.572 469.262 172.815 468.104 177.867L477.852 180.101C478.571 176.961 479.937 174.889 481.775 173.484L475.701 165.54ZM554.837 175.4L552.601 179.872C552.669 179.906 552.737 179.938 552.806 179.969L554.837 175.4ZM563.157 178.216L561.885 183.051C561.924 183.062 561.965 183.072 562.005 183.081L563.157 178.216ZM572.885 181.288L571.049 185.939C571.085 185.953 571.121 185.966 571.156 185.98L572.885 181.288ZM581.077 187.432L577.105 190.469C577.124 190.493 577.142 190.518 577.161 190.541L581.077 187.432ZM577.109 213.544L580.029 217.603C580.033 217.6 580.037 217.597 580.042 217.594L577.109 213.544ZM531.925 203.56L529.474 199.202C527.189 200.487 526.285 203.318 527.401 205.689L531.925 203.56ZM546.261 195.496L550.997 193.893C550.52 192.484 549.44 191.36 548.051 190.827C546.661 190.295 545.107 190.409 543.81 191.138L546.261 195.496ZM564.181 194.216L561.945 198.688C562.013 198.722 562.081 198.754 562.15 198.785L564.181 194.216ZM555.989 191.272L554.717 196.107L554.717 196.107L555.989 191.272ZM546.261 188.072L544.425 192.723L546.261 188.072ZM537.941 182.056L534.014 185.15C534.048 185.194 534.083 185.238 534.12 185.28L537.941 182.056ZM541.525 156.712L544.595 160.659L544.605 160.651L541.525 156.712ZM573.141 154.792L570.698 159.155C570.72 159.167 570.743 159.179 570.765 159.192L573.141 154.792ZM583.253 164.776L585.647 169.165C586.825 168.523 587.695 167.435 588.062 166.144C588.429 164.854 588.263 163.471 587.599 162.304L583.253 164.776ZM569.173 172.456L564.649 174.585C565.236 175.832 566.311 176.781 567.62 177.209C568.93 177.637 570.358 177.505 571.567 176.845L569.173 172.456ZM553.557 167.336L550.841 163.138C550.802 163.163 550.763 163.189 550.724 163.216L553.557 167.336ZM546.509 171.176C546.509 175.584 549.557 178.35 552.601 179.872L557.073 170.928C556.743 170.763 556.528 170.623 556.397 170.524C556.268 170.426 556.242 170.385 556.268 170.418C556.299 170.456 556.369 170.559 556.427 170.722C556.487 170.889 556.509 171.05 556.509 171.176H546.509ZM552.806 179.969C555.42 181.131 558.461 182.151 561.885 183.051L564.429 173.381C561.367 172.575 558.862 171.717 556.868 170.831L552.806 179.969ZM562.005 183.081C565.004 183.792 568.019 184.743 571.049 185.939L574.721 176.637C571.266 175.273 567.795 174.176 564.309 173.351L562.005 183.081ZM571.156 185.98C573.458 186.828 575.428 188.276 577.105 190.469L585.049 184.395C582.289 180.785 578.797 178.138 574.614 176.596L571.156 185.98ZM577.161 190.541C578.645 192.41 579.533 194.884 579.533 198.312H589.533C589.533 193.036 588.117 188.257 584.993 184.323L577.161 190.541ZM579.533 198.312C579.533 203.42 577.717 206.93 574.176 209.494L580.042 217.594C586.4 212.99 589.533 206.345 589.533 198.312H579.533ZM574.189 209.485C570.352 212.245 565.335 213.792 558.805 213.792V223.792C566.952 223.792 574.138 221.84 580.029 217.603L574.189 209.485ZM558.805 213.792C552.865 213.792 548.242 212.645 544.694 210.634C541.195 208.651 538.44 205.661 536.449 201.431L527.401 205.689C530.189 211.614 534.303 216.24 539.764 219.334C545.176 222.401 551.604 223.792 558.805 223.792V213.792ZM534.376 207.918L548.712 199.854L543.81 191.138L529.474 199.202L534.376 207.918ZM541.525 197.099C542.757 200.739 544.879 203.805 548.041 205.903C551.16 207.971 554.864 208.816 558.805 208.816V198.816C556.261 198.816 554.631 198.274 553.569 197.569C552.55 196.894 551.642 195.799 550.997 193.893L541.525 197.099ZM558.805 208.816C562.106 208.816 565.43 208.331 568.073 206.683C571.11 204.791 572.637 201.752 572.637 198.312H562.637C562.637 198.551 562.593 198.517 562.676 198.362C562.766 198.194 562.862 198.148 562.785 198.197C562.484 198.384 561.392 198.816 558.805 198.816V208.816ZM572.637 198.312C572.637 193.736 569.332 191.034 566.212 189.647L562.15 198.785C562.496 198.939 562.718 199.07 562.85 199.161C562.98 199.251 562.994 199.282 562.952 199.232C562.904 199.176 562.813 199.048 562.739 198.852C562.664 198.652 562.637 198.46 562.637 198.312H572.637ZM566.417 189.744C563.805 188.438 560.729 187.349 557.261 186.437L554.717 196.107C557.734 196.901 560.12 197.776 561.945 198.688L566.417 189.744ZM557.261 186.437C554.217 185.636 551.163 184.631 548.097 183.421L544.425 192.723C547.845 194.073 551.275 195.202 554.717 196.107L557.261 186.437ZM548.097 183.421C545.644 182.453 543.547 180.946 541.762 178.832L534.12 185.28C536.943 188.627 540.393 191.131 544.425 192.723L548.097 183.421ZM541.868 178.962C540.456 177.169 539.613 174.814 539.613 171.56H529.613C529.613 176.669 530.988 181.311 534.014 185.15L541.868 178.962ZM539.613 171.56C539.613 166.643 541.315 163.21 544.595 160.659L538.455 152.765C532.519 157.382 529.613 163.848 529.613 171.56H539.613ZM544.605 160.651C548.282 157.776 552.95 156.208 558.933 156.208V146.208C551.092 146.208 544.155 148.309 538.445 152.773L544.605 160.651ZM558.933 156.208C563.34 156.208 567.226 157.21 570.698 159.155L575.584 150.429C570.523 147.595 564.937 146.208 558.933 146.208V156.208ZM570.765 159.192C574.18 161.035 576.879 163.682 578.907 167.248L587.599 162.304C584.677 157.166 580.636 153.157 575.517 150.392L570.765 159.192ZM580.859 160.387L566.779 168.067L571.567 176.845L585.647 169.165L580.859 160.387ZM573.697 170.327C572.347 167.459 570.408 165.029 567.765 163.344C565.12 161.658 562.1 160.928 558.933 160.928V170.928C560.545 170.928 561.621 171.286 562.389 171.776C563.159 172.267 563.951 173.101 564.649 174.585L573.697 170.327ZM558.933 160.928C556.063 160.928 553.272 161.565 550.841 163.138L556.273 171.534C556.743 171.23 557.537 170.928 558.933 170.928V160.928ZM550.724 163.216C548.038 165.063 546.509 167.865 546.509 171.176H556.509C556.509 171.123 556.514 171.125 556.504 171.169C556.493 171.216 556.471 171.281 556.433 171.353C556.395 171.424 556.356 171.472 556.335 171.495C556.315 171.517 556.326 171.5 556.39 171.456L550.724 163.216ZM635.005 168.872V173.872C637.766 173.872 640.005 171.633 640.005 168.872H635.005ZM620.541 168.872V163.872C617.78 163.872 615.541 166.111 615.541 168.872H620.541ZM622.205 200.36L618.814 204.034L618.814 204.034L622.205 200.36ZM627.069 202.152L626.67 207.136C626.736 207.141 626.803 207.145 626.869 207.148L627.069 202.152ZM635.005 202.024H640.005C640.005 200.651 639.44 199.339 638.444 198.394C637.447 197.45 636.106 196.957 634.735 197.031L635.005 202.024ZM635.005 217L635.565 221.969C638.094 221.683 640.005 219.545 640.005 217H635.005ZM610.941 213.8L607.965 217.818C607.977 217.826 607.988 217.835 608 217.844L610.941 213.8ZM604.029 168.872H609.029C609.029 166.111 606.79 163.872 604.029 163.872V168.872ZM592.893 168.872H587.893C587.893 171.633 590.132 173.872 592.893 173.872V168.872ZM592.893 153V148C590.132 148 587.893 150.239 587.893 153H592.893ZM604.029 153V158C606.79 158 609.029 155.761 609.029 153H604.029ZM604.029 140.072L602.582 135.286C600.472 135.924 599.029 137.868 599.029 140.072H604.029ZM620.541 135.08H625.541C625.541 133.498 624.792 132.009 623.521 131.065C622.251 130.122 620.609 129.836 619.094 130.294L620.541 135.08ZM620.541 153H615.541C615.541 155.761 617.78 158 620.541 158V153ZM635.005 153H640.005C640.005 150.239 637.766 148 635.005 148V153ZM635.005 163.872H620.541V173.872H635.005V163.872ZM615.541 168.872V195.496H625.541V168.872H615.541ZM615.541 195.496C615.541 198.449 616.277 201.693 618.814 204.034L625.596 196.686C625.73 196.81 625.733 196.89 625.688 196.758C625.632 196.596 625.541 196.208 625.541 195.496H615.541ZM618.814 204.034C621.028 206.078 623.876 206.913 626.67 207.136L627.468 197.168C625.995 197.05 625.601 196.69 625.596 196.686L618.814 204.034ZM626.869 207.148C629.214 207.242 632.028 207.192 635.275 207.017L634.735 197.031C631.668 197.197 629.191 197.233 627.269 197.156L626.869 207.148ZM630.005 202.024V217H640.005V202.024H630.005ZM634.445 212.031C623.298 213.289 616.956 211.992 613.882 209.756L608 217.844C614.313 222.435 624.013 223.271 635.565 221.969L634.445 212.031ZM613.917 209.782C611.148 207.731 609.029 203.57 609.029 195.496H599.029C599.029 205.001 601.518 213.042 607.965 217.818L613.917 209.782ZM609.029 195.496V168.872H599.029V195.496H609.029ZM604.029 163.872H592.893V173.872H604.029V163.872ZM597.893 168.872V153H587.893V168.872H597.893ZM592.893 158H604.029V148H592.893V158ZM609.029 153V140.072H599.029V153H609.029ZM605.476 144.858L621.988 139.866L619.094 130.294L602.582 135.286L605.476 144.858ZM615.541 135.08V153H625.541V135.08H615.541ZM620.541 158H635.005V148H620.541V158ZM630.005 153V168.872H640.005V153H630.005ZM670.047 215.464L666.511 211.928L666.511 211.928L670.047 215.464ZM654.687 215.464L651.151 219L651.151 219L654.687 215.464ZM654.687 200.104L658.223 203.64L658.223 203.64L654.687 200.104ZM670.047 200.104L666.511 203.64L666.511 203.64L670.047 200.104ZM666.511 211.928C665.305 213.135 664.013 213.664 662.367 213.664V223.664C666.695 223.664 670.522 222.06 673.583 219L666.511 211.928ZM662.367 213.664C660.721 213.664 659.429 213.135 658.223 211.928L651.151 219C654.212 222.06 658.039 223.664 662.367 223.664V213.664ZM658.223 211.928C657.016 210.722 656.487 209.43 656.487 207.784H646.487C646.487 212.112 648.091 215.939 651.151 219L658.223 211.928ZM656.487 207.784C656.487 206.138 657.016 204.846 658.223 203.64L651.151 196.568C648.091 199.629 646.487 203.456 646.487 207.784H656.487ZM658.223 203.64C659.429 202.433 660.721 201.904 662.367 201.904V191.904C658.039 191.904 654.212 193.508 651.151 196.568L658.223 203.64ZM662.367 201.904C664.013 201.904 665.305 202.433 666.511 203.64L673.583 196.568C670.522 193.508 666.695 191.904 662.367 191.904V201.904ZM666.511 203.64C667.718 204.846 668.247 206.138 668.247 207.784H678.247C678.247 203.456 676.643 199.629 673.583 196.568L666.511 203.64ZM668.247 207.784C668.247 209.43 667.718 210.722 666.511 211.928L673.583 219C676.643 215.939 678.247 212.112 678.247 207.784H668.247Z" fill="#0B8400" mask="url(#path-1-outside-1_23_2)"/>
<path d="M695.744 150.32C693.013 150.32 690.624 149.339 688.576 147.376C686.613 145.328 685.632 142.939 685.632 140.208C685.632 137.477 686.613 135.088 688.576 133.04C690.624 130.992 693.013 129.968 695.744 129.968C698.56 129.968 700.949 130.992 702.912 133.04C704.96 135.088 705.984 137.477 705.984 140.208C705.984 142.939 704.96 145.328 702.912 147.376C700.949 149.339 698.56 150.32 695.744 150.32ZM687.552 222V158H704.064V222H687.552ZM767.689 132.4H784.201V222H767.689V214.448C762.825 220.677 755.913 223.792 746.953 223.792C738.334 223.792 730.953 220.549 724.809 214.064C718.75 207.493 715.721 199.472 715.721 190C715.721 180.528 718.75 172.549 724.809 166.064C730.953 159.493 738.334 156.208 746.953 156.208C755.913 156.208 762.825 159.323 767.689 165.552V132.4ZM737.225 203.056C740.638 206.384 744.905 208.048 750.025 208.048C755.145 208.048 759.369 206.384 762.697 203.056C766.025 199.643 767.689 195.291 767.689 190C767.689 184.709 766.025 180.4 762.697 177.072C759.369 173.659 755.145 171.952 750.025 171.952C744.905 171.952 740.638 173.659 737.225 177.072C733.897 180.4 732.233 184.709 732.233 190C732.233 195.291 733.897 199.643 737.225 203.056Z" fill="#CDDB3C"/>
<path d="M57.5 93.9193C57.5 94.5513 57.7988 95.1462 58.3058 95.5236C58.8129 95.901 59.4685 96.0165 60.0739 95.8351C94.7386 85.4506 131.508 104.837 149.972 135.631C159.175 150.979 163.746 169.052 161.229 187.489C158.715 205.905 149.109 224.843 129.68 241.917C121.802 248.84 109.904 253.407 96.3259 255.081C82.775 256.752 67.7266 255.516 53.702 251.013C25.7026 242.023 2 220.136 2 182.419V23.0738C4.12419 9.67213 16.2538 2.25548 29.0763 2.00639C41.8386 1.75846 54.4689 8.64593 57.5 23.123V93.9193Z" fill="url(#paint0_linear_23_2)" stroke="#0B8400" stroke-width="4" stroke-linejoin="round"/>
<path d="M34.6333 183.214C35.1653 206.087 57.462 211.362 68.5439 211.14C63.2246 214.465 40.6175 209.146 36.6281 207.816C33.0598 206.626 24.6596 209.811 22 211.14C39.2877 223.774 109.768 219.119 133.705 215.795C151.658 212.47 132.375 205.821 119.742 205.156C135.7 195.182 130.381 157.061 129.051 138H34.6333V183.214Z" fill="#1E1E1E"/>
<path d="M81 142.655C83 118.655 79.5 99.5582 63 95.0581C79.3333 91.2248 108.8 92.7582 98 99.5582C87.2 106.358 89 131.558 91.5 145.058C88.1667 155.058 79 166.655 81 142.655Z" fill="#1E1E1E"/>
<defs>
<linearGradient id="paint0_linear_23_2" x1="81.9571" y1="0" x2="81.9571" y2="258.015" gradientUnits="userSpaceOnUse">
<stop stop-color="#7AC776"/>
<stop offset="1" stop-color="#CDDB3B"/>
</linearGradient>
</defs>
</svg>
