<svg width="792" height="266" viewBox="0 0 792 266" fill="none" xmlns="http://www.w3.org/2000/svg">
<path d="M202.064 164.008C203.6 159.912 206.117 156.84 209.616 154.792C213.2 152.744 217.168 151.72 221.52 151.72V170.152C216.485 169.555 211.963 170.579 207.952 173.224C204.027 175.869 202.064 180.264 202.064 186.408V217H185.552V153H202.064V164.008ZM247.874 191.784C250.093 199.805 256.109 203.816 265.922 203.816C272.237 203.816 277.015 201.683 280.258 197.416L293.57 205.096C287.255 214.227 277.954 218.792 265.666 218.792C255.085 218.792 246.594 215.592 240.194 209.192C233.794 202.792 230.594 194.728 230.594 185C230.594 175.357 233.751 167.336 240.066 160.936C246.381 154.451 254.487 151.208 264.386 151.208C273.773 151.208 281.495 154.451 287.554 160.936C293.698 167.421 296.77 175.443 296.77 185C296.77 187.133 296.557 189.395 296.13 191.784H247.874ZM247.618 178.984H280.258C279.319 174.632 277.357 171.389 274.37 169.256C271.469 167.123 268.141 166.056 264.386 166.056C259.949 166.056 256.279 167.208 253.378 169.512C250.477 171.731 248.557 174.888 247.618 178.984ZM382.981 153H400.517L380.165 217H364.421L352.645 178.216L340.869 217H325.125L304.773 153H322.309L333.189 192.296L344.837 153H360.453L372.101 192.424L382.981 153ZM448.969 141.48C439.924 140.797 435.401 144.424 435.401 152.36V153H448.969V168.872H435.401V217H418.889V168.872H409.673V153H418.889V152.36C418.889 143.315 421.406 136.445 426.441 131.752C431.476 127.059 438.985 125.011 448.969 125.608V141.48ZM473.234 191.784C475.453 199.805 481.469 203.816 491.282 203.816C497.597 203.816 502.375 201.683 505.618 197.416L518.93 205.096C512.615 214.227 503.314 218.792 491.026 218.792C480.445 218.792 471.954 215.592 465.554 209.192C459.154 202.792 455.954 194.728 455.954 185C455.954 175.357 459.111 167.336 465.426 160.936C471.741 154.451 479.847 151.208 489.746 151.208C499.133 151.208 506.855 154.451 512.914 160.936C519.058 167.421 522.13 175.443 522.13 185C522.13 187.133 521.917 189.395 521.49 191.784H473.234ZM472.978 178.984H505.618C504.679 174.632 502.717 171.389 499.73 169.256C496.829 167.123 493.501 166.056 489.746 166.056C485.309 166.056 481.639 167.208 478.738 169.512C475.837 171.731 473.917 174.888 472.978 178.984ZM551.509 171.176C551.509 172.883 552.618 174.291 554.837 175.4C557.141 176.424 559.914 177.363 563.157 178.216C566.4 178.984 569.642 180.008 572.885 181.288C576.128 182.483 578.858 184.531 581.077 187.432C583.381 190.333 584.533 193.96 584.533 198.312C584.533 204.883 582.058 209.96 577.109 213.544C572.245 217.043 566.144 218.792 558.805 218.792C545.664 218.792 536.704 213.715 531.925 203.56L546.261 195.496C548.138 201.043 552.32 203.816 558.805 203.816C564.693 203.816 567.637 201.981 567.637 198.312C567.637 196.605 566.485 195.24 564.181 194.216C561.962 193.107 559.232 192.125 555.989 191.272C552.746 190.419 549.504 189.352 546.261 188.072C543.018 186.792 540.245 184.787 537.941 182.056C535.722 179.24 534.613 175.741 534.613 171.56C534.613 165.245 536.917 160.296 541.525 156.712C546.218 153.043 552.021 151.208 558.933 151.208C564.138 151.208 568.874 152.403 573.141 154.792C577.408 157.096 580.778 160.424 583.253 164.776L569.173 172.456C567.125 168.104 563.712 165.928 558.933 165.928C556.8 165.928 555.008 166.397 553.557 167.336C552.192 168.275 551.509 169.555 551.509 171.176ZM635.005 168.872H620.541V195.496C620.541 197.715 621.096 199.336 622.205 200.36C623.314 201.384 624.936 201.981 627.069 202.152C629.202 202.237 631.848 202.195 635.005 202.024V217C623.656 218.28 615.634 217.213 610.941 213.8C606.333 210.387 604.029 204.285 604.029 195.496V168.872H592.893V153H604.029V140.072L620.541 135.08V153H635.005V168.872ZM670.047 215.464C667.914 217.597 665.354 218.664 662.367 218.664C659.38 218.664 656.82 217.597 654.687 215.464C652.554 213.331 651.487 210.771 651.487 207.784C651.487 204.797 652.554 202.237 654.687 200.104C656.82 197.971 659.38 196.904 662.367 196.904C665.354 196.904 667.914 197.971 670.047 200.104C672.18 202.237 673.247 204.797 673.247 207.784C673.247 210.771 672.18 213.331 670.047 215.464Z" fill="#2A684D"/>
<path d="M695.744 150.32C693.013 150.32 690.624 149.339 688.576 147.376C686.613 145.328 685.632 142.939 685.632 140.208C685.632 137.477 686.613 135.088 688.576 133.04C690.624 130.992 693.013 129.968 695.744 129.968C698.56 129.968 700.949 130.992 702.912 133.04C704.96 135.088 705.984 137.477 705.984 140.208C705.984 142.939 704.96 145.328 702.912 147.376C700.949 149.339 698.56 150.32 695.744 150.32ZM687.552 222V158H704.064V222H687.552ZM767.689 132.4H784.201V222H767.689V214.448C762.825 220.677 755.913 223.792 746.953 223.792C738.334 223.792 730.953 220.549 724.809 214.064C718.75 207.493 715.721 199.472 715.721 190C715.721 180.528 718.75 172.549 724.809 166.064C730.953 159.493 738.334 156.208 746.953 156.208C755.913 156.208 762.825 159.323 767.689 165.552V132.4ZM737.225 203.056C740.638 206.384 744.905 208.048 750.025 208.048C755.145 208.048 759.369 206.384 762.697 203.056C766.025 199.643 767.689 195.291 767.689 190C767.689 184.709 766.025 180.4 762.697 177.072C759.369 173.659 755.145 171.952 750.025 171.952C744.905 171.952 740.638 173.659 737.225 177.072C733.897 180.4 732.233 184.709 732.233 190C732.233 195.291 733.897 199.643 737.225 203.056Z" fill="#2A684D"/>
<path d="M57.5 93.9193C57.5 94.5513 57.7988 95.1462 58.3058 95.5236C58.8129 95.901 59.4685 96.0165 60.0739 95.8351C94.7386 85.4506 131.508 104.837 149.972 135.631C159.175 150.979 163.746 169.052 161.229 187.489C158.715 205.905 149.109 224.843 129.68 241.917C121.802 248.84 109.904 253.407 96.3259 255.081C82.775 256.752 67.7266 255.516 53.702 251.013C25.7026 242.023 2 220.136 2 182.419V23.0738C4.12419 9.67213 16.2538 2.25548 29.0763 2.00639C41.8386 1.75846 54.4689 8.64593 57.5 23.123V93.9193Z" stroke="#2A684D" stroke-width="4" stroke-linejoin="round"/>
<path d="M34.6333 183.214C35.1653 206.087 57.462 211.362 68.5439 211.14C63.2246 214.465 40.6175 209.146 36.6281 207.816C33.0598 206.626 24.6596 209.811 22 211.14C39.2877 223.774 109.768 219.119 133.705 215.795C151.658 212.47 132.375 205.821 119.742 205.156C135.7 195.182 130.381 157.061 129.051 138H34.6333V183.214Z" fill="#2A684D" stroke="#2A684D" stroke-width="6.64912"/>
</svg>
