<svg width="756" height="258" viewBox="0 0 756 258" fill="none" xmlns="http://www.w3.org/2000/svg">
<mask id="path-1-outside-1_23_2" maskUnits="userSpaceOnUse" x="181" y="127" width="571" height="103" fill="black">
<rect fill="white" x="181" y="127" width="571" height="103"/>
<path d="M202.064 171.008C203.6 166.912 206.117 163.84 209.616 161.792C213.2 159.744 217.168 158.72 221.52 158.72V177.152C216.485 176.555 211.963 177.579 207.952 180.224C204.027 182.869 202.064 187.264 202.064 193.408V224H185.552V160H202.064V171.008ZM242.754 198.784C244.973 206.805 250.989 210.816 260.802 210.816C267.117 210.816 271.895 208.683 275.138 204.416L288.45 212.096C282.135 221.227 272.834 225.792 260.546 225.792C249.965 225.792 241.474 222.592 235.074 216.192C228.674 209.792 225.474 201.728 225.474 192C225.474 182.357 228.631 174.336 234.946 167.936C241.261 161.451 249.367 158.208 259.266 158.208C268.653 158.208 276.375 161.451 282.434 167.936C288.578 174.421 291.65 182.443 291.65 192C291.65 194.133 291.437 196.395 291.01 198.784H242.754ZM242.498 185.984H275.138C274.199 181.632 272.237 178.389 269.25 176.256C266.349 174.123 263.021 173.056 259.266 173.056C254.829 173.056 251.159 174.208 248.258 176.512C245.357 178.731 243.437 181.888 242.498 185.984ZM372.741 160H390.277L369.925 224H354.181L342.405 185.216L330.629 224H314.885L294.533 160H312.069L322.949 199.296L334.597 160H350.213L361.861 199.424L372.741 160ZM433.609 148.48C424.564 147.797 420.041 151.424 420.041 159.36V160H433.609V175.872H420.041V224H403.529V175.872H394.313V160H403.529V159.36C403.529 150.315 406.046 143.445 411.081 138.752C416.116 134.059 423.625 132.011 433.609 132.608V148.48ZM452.754 198.784C454.973 206.805 460.989 210.816 470.802 210.816C477.117 210.816 481.895 208.683 485.138 204.416L498.45 212.096C492.135 221.227 482.834 225.792 470.546 225.792C459.965 225.792 451.474 222.592 445.074 216.192C438.674 209.792 435.474 201.728 435.474 192C435.474 182.357 438.631 174.336 444.946 167.936C451.261 161.451 459.367 158.208 469.266 158.208C478.653 158.208 486.375 161.451 492.434 167.936C498.578 174.421 501.65 182.443 501.65 192C501.65 194.133 501.437 196.395 501.01 198.784H452.754ZM452.498 185.984H485.138C484.199 181.632 482.237 178.389 479.25 176.256C476.349 174.123 473.021 173.056 469.266 173.056C464.829 173.056 461.159 174.208 458.258 176.512C455.357 178.731 453.437 181.888 452.498 185.984ZM525.909 178.176C525.909 179.883 527.018 181.291 529.237 182.4C531.541 183.424 534.314 184.363 537.557 185.216C540.8 185.984 544.042 187.008 547.285 188.288C550.528 189.483 553.258 191.531 555.477 194.432C557.781 197.333 558.933 200.96 558.933 205.312C558.933 211.883 556.458 216.96 551.509 220.544C546.645 224.043 540.544 225.792 533.205 225.792C520.064 225.792 511.104 220.715 506.325 210.56L520.661 202.496C522.538 208.043 526.72 210.816 533.205 210.816C539.093 210.816 542.037 208.981 542.037 205.312C542.037 203.605 540.885 202.24 538.581 201.216C536.362 200.107 533.632 199.125 530.389 198.272C527.146 197.419 523.904 196.352 520.661 195.072C517.418 193.792 514.645 191.787 512.341 189.056C510.122 186.24 509.013 182.741 509.013 178.56C509.013 172.245 511.317 167.296 515.925 163.712C520.618 160.043 526.421 158.208 533.333 158.208C538.538 158.208 543.274 159.403 547.541 161.792C551.808 164.096 555.178 167.424 557.653 171.776L543.573 179.456C541.525 175.104 538.112 172.928 533.333 172.928C531.2 172.928 529.408 173.397 527.957 174.336C526.592 175.275 525.909 176.555 525.909 178.176ZM604.285 175.872H589.821V202.496C589.821 204.715 590.376 206.336 591.485 207.36C592.594 208.384 594.216 208.981 596.349 209.152C598.482 209.237 601.128 209.195 604.285 209.024V224C592.936 225.28 584.914 224.213 580.221 220.8C575.613 217.387 573.309 211.285 573.309 202.496V175.872H562.173V160H573.309V147.072L589.821 142.08V160H604.285V175.872ZM634.207 222.464C632.074 224.597 629.514 225.664 626.527 225.664C623.54 225.664 620.98 224.597 618.847 222.464C616.714 220.331 615.647 217.771 615.647 214.784C615.647 211.797 616.714 209.237 618.847 207.104C620.98 204.971 623.54 203.904 626.527 203.904C629.514 203.904 632.074 204.971 634.207 207.104C636.34 209.237 637.407 211.797 637.407 214.784C637.407 217.771 636.34 220.331 634.207 222.464Z"/>
<path d="M659.369 152.32C656.638 152.32 654.249 151.339 652.201 149.376C650.238 147.328 649.257 144.939 649.257 142.208C649.257 139.477 650.238 137.088 652.201 135.04C654.249 132.992 656.638 131.968 659.369 131.968C662.185 131.968 664.574 132.992 666.537 135.04C668.585 137.088 669.609 139.477 669.609 142.208C669.609 144.939 668.585 147.328 666.537 149.376C664.574 151.339 662.185 152.32 659.369 152.32ZM651.177 224V160H667.689V224H651.177ZM731.314 134.4H747.826V224H731.314V216.448C726.45 222.677 719.538 225.792 710.578 225.792C701.959 225.792 694.578 222.549 688.434 216.064C682.375 209.493 679.346 201.472 679.346 192C679.346 182.528 682.375 174.549 688.434 168.064C694.578 161.493 701.959 158.208 710.578 158.208C719.538 158.208 726.45 161.323 731.314 167.552V134.4ZM700.85 205.056C704.263 208.384 708.53 210.048 713.65 210.048C718.77 210.048 722.994 208.384 726.322 205.056C729.65 201.643 731.314 197.291 731.314 192C731.314 186.709 729.65 182.4 726.322 179.072C722.994 175.659 718.77 173.952 713.65 173.952C708.53 173.952 704.263 175.659 700.85 179.072C697.522 182.4 695.858 186.709 695.858 192C695.858 197.291 697.522 201.643 700.85 205.056Z"/>
</mask>
<path d="M202.064 171.008C203.6 166.912 206.117 163.84 209.616 161.792C213.2 159.744 217.168 158.72 221.52 158.72V177.152C216.485 176.555 211.963 177.579 207.952 180.224C204.027 182.869 202.064 187.264 202.064 193.408V224H185.552V160H202.064V171.008ZM242.754 198.784C244.973 206.805 250.989 210.816 260.802 210.816C267.117 210.816 271.895 208.683 275.138 204.416L288.45 212.096C282.135 221.227 272.834 225.792 260.546 225.792C249.965 225.792 241.474 222.592 235.074 216.192C228.674 209.792 225.474 201.728 225.474 192C225.474 182.357 228.631 174.336 234.946 167.936C241.261 161.451 249.367 158.208 259.266 158.208C268.653 158.208 276.375 161.451 282.434 167.936C288.578 174.421 291.65 182.443 291.65 192C291.65 194.133 291.437 196.395 291.01 198.784H242.754ZM242.498 185.984H275.138C274.199 181.632 272.237 178.389 269.25 176.256C266.349 174.123 263.021 173.056 259.266 173.056C254.829 173.056 251.159 174.208 248.258 176.512C245.357 178.731 243.437 181.888 242.498 185.984ZM372.741 160H390.277L369.925 224H354.181L342.405 185.216L330.629 224H314.885L294.533 160H312.069L322.949 199.296L334.597 160H350.213L361.861 199.424L372.741 160ZM433.609 148.48C424.564 147.797 420.041 151.424 420.041 159.36V160H433.609V175.872H420.041V224H403.529V175.872H394.313V160H403.529V159.36C403.529 150.315 406.046 143.445 411.081 138.752C416.116 134.059 423.625 132.011 433.609 132.608V148.48ZM452.754 198.784C454.973 206.805 460.989 210.816 470.802 210.816C477.117 210.816 481.895 208.683 485.138 204.416L498.45 212.096C492.135 221.227 482.834 225.792 470.546 225.792C459.965 225.792 451.474 222.592 445.074 216.192C438.674 209.792 435.474 201.728 435.474 192C435.474 182.357 438.631 174.336 444.946 167.936C451.261 161.451 459.367 158.208 469.266 158.208C478.653 158.208 486.375 161.451 492.434 167.936C498.578 174.421 501.65 182.443 501.65 192C501.65 194.133 501.437 196.395 501.01 198.784H452.754ZM452.498 185.984H485.138C484.199 181.632 482.237 178.389 479.25 176.256C476.349 174.123 473.021 173.056 469.266 173.056C464.829 173.056 461.159 174.208 458.258 176.512C455.357 178.731 453.437 181.888 452.498 185.984ZM525.909 178.176C525.909 179.883 527.018 181.291 529.237 182.4C531.541 183.424 534.314 184.363 537.557 185.216C540.8 185.984 544.042 187.008 547.285 188.288C550.528 189.483 553.258 191.531 555.477 194.432C557.781 197.333 558.933 200.96 558.933 205.312C558.933 211.883 556.458 216.96 551.509 220.544C546.645 224.043 540.544 225.792 533.205 225.792C520.064 225.792 511.104 220.715 506.325 210.56L520.661 202.496C522.538 208.043 526.72 210.816 533.205 210.816C539.093 210.816 542.037 208.981 542.037 205.312C542.037 203.605 540.885 202.24 538.581 201.216C536.362 200.107 533.632 199.125 530.389 198.272C527.146 197.419 523.904 196.352 520.661 195.072C517.418 193.792 514.645 191.787 512.341 189.056C510.122 186.24 509.013 182.741 509.013 178.56C509.013 172.245 511.317 167.296 515.925 163.712C520.618 160.043 526.421 158.208 533.333 158.208C538.538 158.208 543.274 159.403 547.541 161.792C551.808 164.096 555.178 167.424 557.653 171.776L543.573 179.456C541.525 175.104 538.112 172.928 533.333 172.928C531.2 172.928 529.408 173.397 527.957 174.336C526.592 175.275 525.909 176.555 525.909 178.176ZM604.285 175.872H589.821V202.496C589.821 204.715 590.376 206.336 591.485 207.36C592.594 208.384 594.216 208.981 596.349 209.152C598.482 209.237 601.128 209.195 604.285 209.024V224C592.936 225.28 584.914 224.213 580.221 220.8C575.613 217.387 573.309 211.285 573.309 202.496V175.872H562.173V160H573.309V147.072L589.821 142.08V160H604.285V175.872ZM634.207 222.464C632.074 224.597 629.514 225.664 626.527 225.664C623.54 225.664 620.98 224.597 618.847 222.464C616.714 220.331 615.647 217.771 615.647 214.784C615.647 211.797 616.714 209.237 618.847 207.104C620.98 204.971 623.54 203.904 626.527 203.904C629.514 203.904 632.074 204.971 634.207 207.104C636.34 209.237 637.407 211.797 637.407 214.784C637.407 217.771 636.34 220.331 634.207 222.464Z" fill="white"/>
<path d="M659.369 152.32C656.638 152.32 654.249 151.339 652.201 149.376C650.238 147.328 649.257 144.939 649.257 142.208C649.257 139.477 650.238 137.088 652.201 135.04C654.249 132.992 656.638 131.968 659.369 131.968C662.185 131.968 664.574 132.992 666.537 135.04C668.585 137.088 669.609 139.477 669.609 142.208C669.609 144.939 668.585 147.328 666.537 149.376C664.574 151.339 662.185 152.32 659.369 152.32ZM651.177 224V160H667.689V224H651.177ZM731.314 134.4H747.826V224H731.314V216.448C726.45 222.677 719.538 225.792 710.578 225.792C701.959 225.792 694.578 222.549 688.434 216.064C682.375 209.493 679.346 201.472 679.346 192C679.346 182.528 682.375 174.549 688.434 168.064C694.578 161.493 701.959 158.208 710.578 158.208C719.538 158.208 726.45 161.323 731.314 167.552V134.4ZM700.85 205.056C704.263 208.384 708.53 210.048 713.65 210.048C718.77 210.048 722.994 208.384 726.322 205.056C729.65 201.643 731.314 197.291 731.314 192C731.314 186.709 729.65 182.4 726.322 179.072C722.994 175.659 718.77 173.952 713.65 173.952C708.53 173.952 704.263 175.659 700.85 179.072C697.522 182.4 695.858 186.709 695.858 192C695.858 197.291 697.522 201.643 700.85 205.056Z" fill="url(#paint0_linear_23_2)"/>
<path d="M202.064 171.008H198.064C198.064 172.942 199.447 174.599 201.35 174.944C203.253 175.289 205.13 174.223 205.809 172.412L202.064 171.008ZM209.616 161.792L207.631 158.319C207.619 158.326 207.607 158.333 207.595 158.34L209.616 161.792ZM221.52 158.72H225.52C225.52 156.511 223.729 154.72 221.52 154.72V158.72ZM221.52 177.152L221.049 181.124C222.184 181.259 223.322 180.901 224.177 180.142C225.031 179.383 225.52 178.295 225.52 177.152H221.52ZM207.952 180.224L205.75 176.885C205.739 176.892 205.728 176.9 205.717 176.907L207.952 180.224ZM202.064 224V228C204.273 228 206.064 226.209 206.064 224H202.064ZM185.552 224H181.552C181.552 226.209 183.343 228 185.552 228V224ZM185.552 160V156C183.343 156 181.552 157.791 181.552 160H185.552ZM202.064 160H206.064C206.064 157.791 204.273 156 202.064 156V160ZM205.809 172.412C207.05 169.104 208.996 166.79 211.637 165.244L207.595 158.34C203.239 160.89 200.15 164.72 198.319 169.604L205.809 172.412ZM211.601 165.265C214.547 163.581 217.825 162.72 221.52 162.72V154.72C216.511 154.72 211.853 155.907 207.631 158.319L211.601 165.265ZM217.52 158.72V177.152H225.52V158.72H217.52ZM221.991 173.18C216.075 172.478 210.595 173.689 205.75 176.885L210.154 183.563C213.331 181.468 216.896 180.631 221.049 181.124L221.991 173.18ZM205.717 176.907C200.366 180.513 198.064 186.376 198.064 193.408H206.064C206.064 188.152 207.688 185.226 210.187 183.541L205.717 176.907ZM198.064 193.408V224H206.064V193.408H198.064ZM202.064 220H185.552V228H202.064V220ZM189.552 224V160H181.552V224H189.552ZM185.552 164H202.064V156H185.552V164ZM198.064 160V171.008H206.064V160H198.064ZM242.754 198.784V194.784C241.505 194.784 240.327 195.368 239.571 196.362C238.814 197.356 238.566 198.646 238.899 199.85L242.754 198.784ZM275.138 204.416L277.137 200.951C275.392 199.945 273.172 200.392 271.953 201.996L275.138 204.416ZM288.45 212.096L291.74 214.371C292.376 213.452 292.598 212.309 292.353 211.218C292.107 210.128 291.417 209.19 290.449 208.631L288.45 212.096ZM235.074 216.192L232.246 219.02L232.246 219.02L235.074 216.192ZM234.946 167.936L237.793 170.745C237.8 170.739 237.806 170.733 237.812 170.726L234.946 167.936ZM282.434 167.936L279.511 170.667C279.517 170.673 279.524 170.68 279.53 170.687L282.434 167.936ZM291.01 198.784V202.784C292.948 202.784 294.607 201.395 294.948 199.487L291.01 198.784ZM242.498 185.984L238.599 185.09C238.327 186.278 238.611 187.524 239.37 188.477C240.129 189.429 241.28 189.984 242.498 189.984V185.984ZM275.138 185.984V189.984C276.347 189.984 277.491 189.437 278.25 188.497C279.01 187.556 279.303 186.322 279.048 185.141L275.138 185.984ZM269.25 176.256L266.88 179.479C266.895 179.489 266.91 179.5 266.925 179.511L269.25 176.256ZM248.258 176.512L250.688 179.689C250.707 179.675 250.726 179.66 250.746 179.644L248.258 176.512ZM238.899 199.85C240.223 204.639 242.784 208.518 246.711 211.136C250.573 213.711 255.38 214.816 260.802 214.816V206.816C256.41 206.816 253.303 205.916 251.149 204.48C249.06 203.087 247.503 200.951 246.609 197.718L238.899 199.85ZM260.802 214.816C268.115 214.816 274.183 212.283 278.323 206.836L271.953 201.996C269.607 205.083 266.118 206.816 260.802 206.816V214.816ZM273.139 207.881L286.451 215.561L290.449 208.631L277.137 200.951L273.139 207.881ZM285.16 209.821C279.681 217.743 271.685 221.792 260.546 221.792V229.792C273.983 229.792 284.589 224.71 291.74 214.371L285.16 209.821ZM260.546 221.792C250.832 221.792 243.426 218.887 237.902 213.364L232.246 219.02C239.522 226.297 249.097 229.792 260.546 229.792V221.792ZM237.902 213.364C232.312 207.774 229.474 200.755 229.474 192H221.474C221.474 202.701 225.036 211.81 232.246 219.02L237.902 213.364ZM229.474 192C229.474 183.325 232.274 176.339 237.793 170.745L232.099 165.127C224.988 172.333 221.474 181.39 221.474 192H229.474ZM237.812 170.726C243.299 165.091 250.335 162.208 259.266 162.208V154.208C248.4 154.208 239.222 157.81 232.08 165.146L237.812 170.726ZM259.266 162.208C267.616 162.208 274.256 165.042 279.511 170.667L285.357 165.205C278.494 157.859 269.689 154.208 259.266 154.208V162.208ZM279.53 170.687C284.918 176.374 287.65 183.388 287.65 192H295.65C295.65 181.498 292.238 172.468 285.338 165.185L279.53 170.687ZM287.65 192C287.65 193.868 287.463 195.893 287.072 198.081L294.948 199.487C295.41 196.897 295.65 194.399 295.65 192H287.65ZM291.01 194.784H242.754V202.784H291.01V194.784ZM242.498 189.984H275.138V181.984H242.498V189.984ZM279.048 185.141C277.947 180.033 275.536 175.831 271.575 173.001L266.925 179.511C268.937 180.948 270.452 183.231 271.228 186.827L279.048 185.141ZM271.62 173.033C268.001 170.373 263.834 169.056 259.266 169.056V177.056C262.207 177.056 264.697 177.873 266.88 179.479L271.62 173.033ZM259.266 169.056C254.11 169.056 249.512 170.409 245.77 173.38L250.746 179.644C252.807 178.007 255.547 177.056 259.266 177.056V169.056ZM245.828 173.335C242.076 176.204 239.713 180.23 238.599 185.09L246.397 186.878C247.16 183.546 248.637 181.257 250.688 179.689L245.828 173.335ZM372.741 160V156C370.942 156 369.364 157.201 368.885 158.936L372.741 160ZM390.277 160L394.089 161.212C394.476 159.996 394.259 158.669 393.506 157.639C392.752 156.609 391.553 156 390.277 156V160ZM369.925 224V228C371.667 228 373.209 226.872 373.737 225.212L369.925 224ZM354.181 224L350.354 225.162C350.865 226.848 352.419 228 354.181 228V224ZM342.405 185.216L346.232 184.054C345.721 182.368 344.167 181.216 342.405 181.216C340.643 181.216 339.089 182.368 338.578 184.054L342.405 185.216ZM330.629 224V228C332.391 228 333.945 226.848 334.456 225.162L330.629 224ZM314.885 224L311.073 225.212C311.601 226.872 313.143 228 314.885 228V224ZM294.533 160V156C293.257 156 292.058 156.609 291.304 157.639C290.551 158.669 290.334 159.996 290.721 161.212L294.533 160ZM312.069 160L315.924 158.933C315.444 157.2 313.867 156 312.069 156V160ZM322.949 199.296L319.094 200.363C319.57 202.083 321.128 203.28 322.913 203.296C324.697 203.312 326.277 202.144 326.784 200.433L322.949 199.296ZM334.597 160V156C332.826 156 331.265 157.165 330.762 158.863L334.597 160ZM350.213 160L354.049 158.867C353.547 157.167 351.986 156 350.213 156V160ZM361.861 199.424L358.025 200.557C358.531 202.27 360.111 203.44 361.897 203.424C363.683 203.408 365.242 202.21 365.717 200.488L361.861 199.424ZM372.741 164H390.277V156H372.741V164ZM386.465 158.788L366.113 222.788L373.737 225.212L394.089 161.212L386.465 158.788ZM369.925 220H354.181V228H369.925V220ZM358.008 222.838L346.232 184.054L338.578 186.378L350.354 225.162L358.008 222.838ZM338.578 184.054L326.802 222.838L334.456 225.162L346.232 186.378L338.578 184.054ZM330.629 220H314.885V228H330.629V220ZM318.697 222.788L298.345 158.788L290.721 161.212L311.073 225.212L318.697 222.788ZM294.533 164H312.069V156H294.533V164ZM308.214 161.067L319.094 200.363L326.804 198.229L315.924 158.933L308.214 161.067ZM326.784 200.433L338.432 161.137L330.762 158.863L319.114 198.159L326.784 200.433ZM334.597 164H350.213V156H334.597V164ZM346.377 161.133L358.025 200.557L365.697 198.291L354.049 158.867L346.377 161.133ZM365.717 200.488L376.597 161.064L368.885 158.936L358.005 198.36L365.717 200.488ZM433.609 148.48L433.308 152.469C434.418 152.552 435.513 152.17 436.329 151.413C437.145 150.656 437.609 149.593 437.609 148.48H433.609ZM420.041 160H416.041C416.041 162.209 417.832 164 420.041 164V160ZM433.609 160H437.609C437.609 157.791 435.818 156 433.609 156V160ZM433.609 175.872V179.872C435.818 179.872 437.609 178.081 437.609 175.872H433.609ZM420.041 175.872V171.872C417.832 171.872 416.041 173.663 416.041 175.872H420.041ZM420.041 224V228C422.25 228 424.041 226.209 424.041 224H420.041ZM403.529 224H399.529C399.529 226.209 401.32 228 403.529 228V224ZM403.529 175.872H407.529C407.529 173.663 405.738 171.872 403.529 171.872V175.872ZM394.313 175.872H390.313C390.313 178.081 392.104 179.872 394.313 179.872V175.872ZM394.313 160V156C392.104 156 390.313 157.791 390.313 160H394.313ZM403.529 160V164C405.738 164 407.529 162.209 407.529 160H403.529ZM411.081 138.752L413.809 141.678L413.809 141.678L411.081 138.752ZM433.609 132.608H437.609C437.609 130.492 435.96 128.742 433.848 128.615L433.609 132.608ZM433.91 144.491C428.926 144.115 424.327 144.844 420.931 147.567C417.405 150.394 416.041 154.654 416.041 159.36H424.041C424.041 156.13 424.938 154.608 425.935 153.809C427.062 152.905 429.247 152.162 433.308 152.469L433.91 144.491ZM416.041 159.36V160H424.041V159.36H416.041ZM420.041 164H433.609V156H420.041V164ZM429.609 160V175.872H437.609V160H429.609ZM433.609 171.872H420.041V179.872H433.609V171.872ZM416.041 175.872V224H424.041V175.872H416.041ZM420.041 220H403.529V228H420.041V220ZM407.529 224V175.872H399.529V224H407.529ZM403.529 171.872H394.313V179.872H403.529V171.872ZM398.313 175.872V160H390.313V175.872H398.313ZM394.313 164H403.529V156H394.313V164ZM407.529 160V159.36H399.529V160H407.529ZM407.529 159.36C407.529 151.058 409.819 145.397 413.809 141.678L408.353 135.826C402.273 141.494 399.529 149.571 399.529 159.36H407.529ZM413.809 141.678C417.738 138.015 423.98 136.039 433.37 136.601L433.848 128.615C423.27 127.982 414.493 130.102 408.353 135.826L413.809 141.678ZM429.609 132.608V148.48H437.609V132.608H429.609ZM452.754 198.784V194.784C451.505 194.784 450.327 195.368 449.571 196.362C448.814 197.356 448.566 198.646 448.899 199.85L452.754 198.784ZM485.138 204.416L487.137 200.951C485.392 199.945 483.172 200.392 481.953 201.996L485.138 204.416ZM498.45 212.096L501.74 214.371C502.376 213.452 502.598 212.309 502.353 211.218C502.107 210.128 501.417 209.19 500.449 208.631L498.45 212.096ZM445.074 216.192L442.246 219.02L442.246 219.02L445.074 216.192ZM444.946 167.936L447.793 170.745C447.8 170.739 447.806 170.733 447.812 170.726L444.946 167.936ZM492.434 167.936L489.511 170.667C489.517 170.673 489.524 170.68 489.53 170.687L492.434 167.936ZM501.01 198.784V202.784C502.948 202.784 504.607 201.395 504.948 199.487L501.01 198.784ZM452.498 185.984L448.599 185.09C448.327 186.278 448.611 187.524 449.37 188.477C450.129 189.429 451.28 189.984 452.498 189.984V185.984ZM485.138 185.984V189.984C486.347 189.984 487.491 189.437 488.25 188.497C489.01 187.556 489.303 186.322 489.048 185.141L485.138 185.984ZM479.25 176.256L476.88 179.479C476.895 179.489 476.91 179.5 476.925 179.511L479.25 176.256ZM458.258 176.512L460.688 179.689C460.707 179.675 460.726 179.66 460.746 179.644L458.258 176.512ZM448.899 199.85C450.223 204.639 452.784 208.518 456.711 211.136C460.573 213.711 465.38 214.816 470.802 214.816V206.816C466.41 206.816 463.303 205.916 461.149 204.48C459.06 203.087 457.503 200.951 456.609 197.718L448.899 199.85ZM470.802 214.816C478.115 214.816 484.183 212.283 488.323 206.836L481.953 201.996C479.607 205.083 476.118 206.816 470.802 206.816V214.816ZM483.139 207.881L496.451 215.561L500.449 208.631L487.137 200.951L483.139 207.881ZM495.16 209.821C489.681 217.743 481.685 221.792 470.546 221.792V229.792C483.983 229.792 494.589 224.71 501.74 214.371L495.16 209.821ZM470.546 221.792C460.832 221.792 453.426 218.887 447.902 213.364L442.246 219.02C449.522 226.297 459.097 229.792 470.546 229.792V221.792ZM447.902 213.364C442.312 207.774 439.474 200.755 439.474 192H431.474C431.474 202.701 435.036 211.81 442.246 219.02L447.902 213.364ZM439.474 192C439.474 183.325 442.274 176.339 447.793 170.745L442.099 165.127C434.988 172.333 431.474 181.39 431.474 192H439.474ZM447.812 170.726C453.299 165.091 460.335 162.208 469.266 162.208V154.208C458.4 154.208 449.222 157.81 442.08 165.146L447.812 170.726ZM469.266 162.208C477.616 162.208 484.256 165.042 489.511 170.667L495.357 165.205C488.494 157.859 479.689 154.208 469.266 154.208V162.208ZM489.53 170.687C494.918 176.374 497.65 183.388 497.65 192H505.65C505.65 181.498 502.238 172.468 495.338 165.185L489.53 170.687ZM497.65 192C497.65 193.868 497.463 195.893 497.072 198.081L504.948 199.487C505.41 196.897 505.65 194.399 505.65 192H497.65ZM501.01 194.784H452.754V202.784H501.01V194.784ZM452.498 189.984H485.138V181.984H452.498V189.984ZM489.048 185.141C487.947 180.033 485.536 175.831 481.575 173.001L476.925 179.511C478.937 180.948 480.452 183.231 481.228 186.827L489.048 185.141ZM481.62 173.033C478.001 170.373 473.834 169.056 469.266 169.056V177.056C472.207 177.056 474.697 177.873 476.88 179.479L481.62 173.033ZM469.266 169.056C464.11 169.056 459.512 170.409 455.77 173.38L460.746 179.644C462.807 178.007 465.547 177.056 469.266 177.056V169.056ZM455.828 173.335C452.076 176.204 449.713 180.23 448.599 185.09L456.397 186.878C457.16 183.546 458.637 181.257 460.688 179.689L455.828 173.335ZM529.237 182.4L527.448 185.978C527.502 186.005 527.557 186.031 527.612 186.055L529.237 182.4ZM537.557 185.216L536.539 189.084C536.571 189.093 536.603 189.101 536.635 189.108L537.557 185.216ZM547.285 188.288L545.816 192.009C545.845 192.02 545.873 192.031 545.902 192.041L547.285 188.288ZM555.477 194.432L552.3 196.862C552.314 196.881 552.329 196.9 552.345 196.92L555.477 194.432ZM551.509 220.544L553.845 223.791L553.855 223.784L551.509 220.544ZM506.325 210.56L504.364 207.074C502.537 208.102 501.813 210.366 502.706 212.263L506.325 210.56ZM520.661 202.496L524.45 201.214C524.068 200.086 523.204 199.187 522.093 198.761C520.981 198.335 519.737 198.426 518.7 199.01L520.661 202.496ZM538.581 201.216L536.792 204.794C536.846 204.821 536.901 204.847 536.956 204.871L538.581 201.216ZM530.389 198.272L529.371 202.14L529.371 202.14L530.389 198.272ZM520.661 195.072L519.192 198.793L520.661 195.072ZM512.341 189.056L509.199 191.531C509.227 191.567 509.255 191.601 509.284 191.635L512.341 189.056ZM515.925 163.712L518.381 166.869L518.389 166.863L515.925 163.712ZM547.541 161.792L545.587 165.282C545.604 165.292 545.622 165.302 545.64 165.312L547.541 161.792ZM557.653 171.776L559.568 175.288C560.511 174.774 561.207 173.903 561.5 172.871C561.794 171.839 561.661 170.732 561.13 169.799L557.653 171.776ZM543.573 179.456L539.954 181.159C540.423 182.156 541.283 182.916 542.331 183.258C543.378 183.6 544.521 183.495 545.488 182.968L543.573 179.456ZM527.957 174.336L525.784 170.978C525.753 170.998 525.722 171.019 525.691 171.04L527.957 174.336ZM521.909 178.176C521.909 182.044 524.569 184.538 527.448 185.978L531.026 178.822C530.253 178.436 529.961 178.136 529.883 178.037C529.852 177.997 529.866 178.005 529.885 178.058C529.905 178.113 529.909 178.16 529.909 178.176H521.909ZM527.612 186.055C530.164 187.189 533.152 188.193 536.539 189.084L538.575 181.348C535.477 180.532 532.918 179.659 530.862 178.745L527.612 186.055ZM536.635 189.108C539.683 189.83 542.743 190.796 545.816 192.009L548.754 184.567C545.341 183.22 541.916 182.138 538.479 181.324L536.635 189.108ZM545.902 192.041C548.392 192.959 550.514 194.527 552.3 196.862L558.654 192.002C556.003 188.534 552.663 186.007 548.668 184.535L545.902 192.041ZM552.345 196.92C553.992 198.995 554.933 201.699 554.933 205.312H562.933C562.933 200.221 561.57 195.672 558.609 191.944L552.345 196.92ZM554.933 205.312C554.933 210.713 552.985 214.536 549.163 217.304L553.855 223.784C559.931 219.384 562.933 213.052 562.933 205.312H554.933ZM549.173 217.297C545.13 220.205 539.897 221.792 533.205 221.792V229.792C541.19 229.792 548.16 227.88 553.845 223.791L549.173 217.297ZM533.205 221.792C527.139 221.792 522.336 220.62 518.601 218.504C514.906 216.41 512.015 213.256 509.944 208.857L502.706 212.263C505.414 218.018 509.392 222.481 514.657 225.464C519.882 228.425 526.13 229.792 533.205 229.792V221.792ZM508.286 214.046L522.622 205.982L518.7 199.01L504.364 207.074L508.286 214.046ZM516.872 203.778C518.046 207.245 520.046 210.114 522.994 212.069C525.907 214.002 529.404 214.816 533.205 214.816V206.816C530.521 206.816 528.684 206.244 527.416 205.403C526.183 204.585 525.154 203.293 524.45 201.214L516.872 203.778ZM533.205 214.816C536.435 214.816 539.535 214.336 541.945 212.835C544.668 211.137 546.037 208.431 546.037 205.312H538.037C538.037 205.687 537.965 205.82 537.958 205.833C537.956 205.837 537.923 205.915 537.713 206.045C537.179 206.379 535.863 206.816 533.205 206.816V214.816ZM546.037 205.312C546.037 201.31 543.163 198.875 540.206 197.561L536.956 204.871C537.768 205.232 538.056 205.517 538.116 205.587C538.135 205.61 538.106 205.581 538.076 205.5C538.045 205.417 538.037 205.345 538.037 205.312H546.037ZM540.37 197.638C537.836 196.371 534.83 195.304 531.407 194.404L529.371 202.14C532.434 202.946 534.888 203.842 536.792 204.794L540.37 197.638ZM531.407 194.404C528.323 193.592 525.231 192.576 522.13 191.351L519.192 198.793C522.576 200.128 525.969 201.245 529.371 202.14L531.407 194.404ZM522.13 191.351C519.519 190.321 517.286 188.714 515.398 186.477L509.284 191.635C512.004 194.859 515.318 197.263 519.192 198.793L522.13 191.351ZM515.483 186.581C513.909 184.583 513.013 181.999 513.013 178.56H505.013C505.013 183.483 506.335 187.897 509.199 191.531L515.483 186.581ZM513.013 178.56C513.013 173.364 514.835 169.627 518.381 166.869L513.469 160.555C507.799 164.965 505.013 171.127 505.013 178.56H513.013ZM518.389 166.863C522.269 163.829 527.165 162.208 533.333 162.208V154.208C525.677 154.208 518.967 156.256 513.461 160.561L518.389 166.863ZM533.333 162.208C537.9 162.208 541.956 163.249 545.587 165.282L549.495 158.302C544.593 155.557 539.177 154.208 533.333 154.208V162.208ZM545.64 165.312C549.225 167.247 552.059 170.031 554.176 173.753L561.13 169.799C558.298 164.817 554.39 160.945 549.442 158.272L545.64 165.312ZM555.738 168.264L541.658 175.944L545.488 182.968L559.568 175.288L555.738 168.264ZM547.192 177.753C545.908 175.023 544.083 172.753 541.627 171.187C539.17 169.62 536.345 168.928 533.333 168.928V176.928C535.1 176.928 536.371 177.324 537.327 177.933C538.284 178.543 539.19 179.537 539.954 181.159L547.192 177.753ZM533.333 168.928C530.61 168.928 528.019 169.531 525.784 170.978L530.13 177.694C530.796 177.263 531.789 176.928 533.333 176.928V168.928ZM525.691 171.04C523.269 172.705 521.909 175.203 521.909 178.176H529.909C529.909 178.052 529.922 177.978 529.931 177.94C529.939 177.905 529.947 177.889 529.95 177.882C529.954 177.875 529.966 177.854 530 177.817C530.036 177.779 530.104 177.714 530.223 177.632L525.691 171.04ZM604.285 175.872V179.872C606.494 179.872 608.285 178.081 608.285 175.872H604.285ZM589.821 175.872V171.872C587.612 171.872 585.821 173.663 585.821 175.872H589.821ZM591.485 207.36L588.772 210.299L588.772 210.299L591.485 207.36ZM596.349 209.152L596.03 213.139C596.083 213.143 596.136 213.147 596.189 213.149L596.349 209.152ZM604.285 209.024H608.285C608.285 207.926 607.833 206.876 607.036 206.12C606.239 205.365 605.166 204.971 604.069 205.03L604.285 209.024ZM604.285 224L604.733 227.975C606.756 227.747 608.285 226.036 608.285 224H604.285ZM580.221 220.8L577.84 224.014C577.849 224.021 577.859 224.028 577.868 224.035L580.221 220.8ZM573.309 175.872H577.309C577.309 173.663 575.518 171.872 573.309 171.872V175.872ZM562.173 175.872H558.173C558.173 178.081 559.964 179.872 562.173 179.872V175.872ZM562.173 160V156C559.964 156 558.173 157.791 558.173 160H562.173ZM573.309 160V164C575.518 164 577.309 162.209 577.309 160H573.309ZM573.309 147.072L572.151 143.243C570.464 143.753 569.309 145.309 569.309 147.072H573.309ZM589.821 142.08H593.821C593.821 140.814 593.222 139.623 592.205 138.868C591.189 138.114 589.875 137.885 588.663 138.251L589.821 142.08ZM589.821 160H585.821C585.821 162.209 587.612 164 589.821 164V160ZM604.285 160H608.285C608.285 157.791 606.494 156 604.285 156V160ZM604.285 171.872H589.821V179.872H604.285V171.872ZM585.821 175.872V202.496H593.821V175.872H585.821ZM585.821 202.496C585.821 205.302 586.521 208.221 588.772 210.299L594.198 204.421C594.194 204.417 594.113 204.349 594.022 204.081C593.922 203.79 593.821 203.288 593.821 202.496H585.821ZM588.772 210.299C590.765 212.139 593.368 212.926 596.03 213.139L596.668 205.165C595.063 205.036 594.423 204.629 594.198 204.421L588.772 210.299ZM596.189 213.149C598.492 213.241 601.272 213.193 604.501 213.018L604.069 205.03C600.984 205.197 598.473 205.234 596.509 205.155L596.189 213.149ZM600.285 209.024V224H608.285V209.024H600.285ZM603.837 220.025C592.65 221.287 585.971 220.036 582.574 217.565L577.868 224.035C583.857 228.391 593.221 229.273 604.733 227.975L603.837 220.025ZM582.602 217.586C579.465 215.262 577.309 210.713 577.309 202.496H569.309C569.309 211.858 571.761 219.511 577.84 224.014L582.602 217.586ZM577.309 202.496V175.872H569.309V202.496H577.309ZM573.309 171.872H562.173V179.872H573.309V171.872ZM566.173 175.872V160H558.173V175.872H566.173ZM562.173 164H573.309V156H562.173V164ZM577.309 160V147.072H569.309V160H577.309ZM574.467 150.901L590.979 145.909L588.663 138.251L572.151 143.243L574.467 150.901ZM585.821 142.08V160H593.821V142.08H585.821ZM589.821 164H604.285V156H589.821V164ZM600.285 160V175.872H608.285V160H600.285ZM634.207 222.464L631.379 219.636L631.379 219.636L634.207 222.464ZM618.847 222.464L616.019 225.292L616.019 225.292L618.847 222.464ZM618.847 207.104L621.675 209.932L621.675 209.932L618.847 207.104ZM634.207 207.104L631.379 209.932L631.379 209.932L634.207 207.104ZM631.379 219.636C629.987 221.027 628.441 221.664 626.527 221.664V229.664C630.587 229.664 634.161 228.167 637.035 225.292L631.379 219.636ZM626.527 221.664C624.613 221.664 623.067 221.027 621.675 219.636L616.019 225.292C618.893 228.167 622.467 229.664 626.527 229.664V221.664ZM621.675 219.636C620.284 218.244 619.647 216.698 619.647 214.784H611.647C611.647 218.844 613.144 222.418 616.019 225.292L621.675 219.636ZM619.647 214.784C619.647 212.87 620.284 211.324 621.675 209.932L616.019 204.276C613.144 207.15 611.647 210.724 611.647 214.784H619.647ZM621.675 209.932C623.067 208.541 624.613 207.904 626.527 207.904V199.904C622.467 199.904 618.893 201.401 616.019 204.276L621.675 209.932ZM626.527 207.904C628.441 207.904 629.987 208.541 631.379 209.932L637.035 204.276C634.161 201.401 630.587 199.904 626.527 199.904V207.904ZM631.379 209.932C632.77 211.324 633.407 212.87 633.407 214.784H641.407C641.407 210.724 639.91 207.15 637.035 204.276L631.379 209.932ZM633.407 214.784C633.407 216.698 632.77 218.244 631.379 219.636L637.035 225.292C639.91 222.418 641.407 218.844 641.407 214.784H633.407ZM652.201 149.376L649.313 152.144C649.352 152.185 649.392 152.225 649.433 152.264L652.201 149.376ZM652.201 135.04L649.373 132.212C649.353 132.232 649.333 132.252 649.313 132.272L652.201 135.04ZM666.537 135.04L663.649 137.808C663.669 137.828 663.689 137.848 663.709 137.868L666.537 135.04ZM666.537 149.376L669.365 152.204L669.365 152.204L666.537 149.376ZM651.177 224H647.177C647.177 226.209 648.968 228 651.177 228V224ZM651.177 160V156C648.968 156 647.177 157.791 647.177 160H651.177ZM667.689 160H671.689C671.689 157.791 669.898 156 667.689 156V160ZM667.689 224V228C669.898 228 671.689 226.209 671.689 224H667.689ZM659.369 148.32C657.713 148.32 656.304 147.768 654.969 146.488L649.433 152.264C652.194 154.91 655.563 156.32 659.369 156.32V148.32ZM655.089 146.608C653.809 145.273 653.257 143.864 653.257 142.208H645.257C645.257 146.014 646.667 149.383 649.313 152.144L655.089 146.608ZM653.257 142.208C653.257 140.552 653.809 139.143 655.089 137.808L649.313 132.272C646.667 135.033 645.257 138.402 645.257 142.208H653.257ZM655.029 137.868C656.378 136.52 657.769 135.968 659.369 135.968V127.968C655.508 127.968 652.12 129.464 649.373 132.212L655.029 137.868ZM659.369 135.968C661.086 135.968 662.435 136.54 663.649 137.808L669.425 132.272C666.714 129.444 663.284 127.968 659.369 127.968V135.968ZM663.709 137.868C665.057 139.217 665.609 140.608 665.609 142.208H673.609C673.609 138.347 672.113 134.959 669.365 132.212L663.709 137.868ZM665.609 142.208C665.609 143.808 665.057 145.199 663.709 146.548L669.365 152.204C672.113 149.457 673.609 146.069 673.609 142.208H665.609ZM663.709 146.548C662.508 147.748 661.141 148.32 659.369 148.32V156.32C663.229 156.32 666.64 154.929 669.365 152.204L663.709 146.548ZM655.177 224V160H647.177V224H655.177ZM651.177 164H667.689V156H651.177V164ZM663.689 160V224H671.689V160H663.689ZM667.689 220H651.177V228H667.689V220ZM731.314 134.4V130.4C729.105 130.4 727.314 132.191 727.314 134.4H731.314ZM747.826 134.4H751.826C751.826 132.191 750.035 130.4 747.826 130.4V134.4ZM747.826 224V228C750.035 228 751.826 226.209 751.826 224H747.826ZM731.314 224H727.314C727.314 226.209 729.105 228 731.314 228V224ZM731.314 216.448H735.314C735.314 214.741 734.23 213.221 732.616 212.666C731.001 212.11 729.212 212.64 728.161 213.986L731.314 216.448ZM688.434 216.064L685.493 218.776C685.506 218.789 685.518 218.802 685.53 218.815L688.434 216.064ZM688.434 168.064L685.512 165.332L685.511 165.333L688.434 168.064ZM731.314 167.552L728.161 170.014C729.212 171.36 731.001 171.89 732.616 171.334C734.23 170.779 735.314 169.259 735.314 167.552H731.314ZM700.85 205.056L697.986 207.848C698.01 207.873 698.033 207.896 698.058 207.92L700.85 205.056ZM726.322 205.056L729.15 207.884C729.162 207.872 729.174 207.86 729.186 207.848L726.322 205.056ZM726.322 179.072L723.458 181.864C723.47 181.876 723.482 181.888 723.494 181.9L726.322 179.072ZM700.85 179.072L698.022 176.244L700.85 179.072ZM731.314 138.4H747.826V130.4H731.314V138.4ZM743.826 134.4V224H751.826V134.4H743.826ZM747.826 220H731.314V228H747.826V220ZM735.314 224V216.448H727.314V224H735.314ZM728.161 213.986C724.163 219.106 718.493 221.792 710.578 221.792V229.792C720.583 229.792 728.737 226.248 734.467 218.91L728.161 213.986ZM710.578 221.792C703.102 221.792 696.758 219.034 691.338 213.313L685.53 218.815C692.399 226.065 700.817 229.792 710.578 229.792V221.792ZM691.375 213.352C686.041 207.568 683.346 200.533 683.346 192H675.346C675.346 202.411 678.71 211.419 685.493 218.776L691.375 213.352ZM683.346 192C683.346 183.467 686.04 176.486 691.357 170.795L685.511 165.333C678.711 172.612 675.346 181.589 675.346 192H683.346ZM691.356 170.796C696.781 164.994 703.12 162.208 710.578 162.208V154.208C700.798 154.208 692.375 157.992 685.512 165.332L691.356 170.796ZM710.578 162.208C718.493 162.208 724.163 164.894 728.161 170.014L734.467 165.09C728.737 157.752 720.583 154.208 710.578 154.208V162.208ZM735.314 167.552V134.4H727.314V167.552H735.314ZM698.058 207.92C702.277 212.034 707.572 214.048 713.65 214.048V206.048C709.488 206.048 706.25 204.734 703.642 202.192L698.058 207.92ZM713.65 214.048C719.728 214.048 725.003 212.032 729.15 207.884L723.494 202.228C720.985 204.736 717.812 206.048 713.65 206.048V214.048ZM729.186 207.848C733.325 203.603 735.314 198.209 735.314 192H727.314C727.314 196.372 725.975 199.682 723.458 202.264L729.186 207.848ZM735.314 192C735.314 185.792 733.324 180.418 729.15 176.244L723.494 181.9C725.976 184.382 727.314 187.626 727.314 192H735.314ZM729.186 176.28C725.045 172.033 719.76 169.952 713.65 169.952V177.952C717.78 177.952 720.943 179.284 723.458 181.864L729.186 176.28ZM713.65 169.952C707.541 169.952 702.234 172.031 698.022 176.244L703.678 181.9C706.293 179.286 709.519 177.952 713.65 177.952V169.952ZM698.022 176.244C693.848 180.418 691.858 185.792 691.858 192H699.858C699.858 187.626 701.196 184.382 703.678 181.9L698.022 176.244ZM691.858 192C691.858 198.209 693.847 203.603 697.986 207.848L703.714 202.264C701.197 199.682 699.858 196.372 699.858 192H691.858Z" fill="#0B8400" mask="url(#path-1-outside-1_23_2)"/>
<path d="M57.5 93.9193C57.5 94.5513 57.7988 95.1462 58.3058 95.5236C58.8129 95.901 59.4685 96.0165 60.0739 95.8351C94.7386 85.4506 131.508 104.837 149.972 135.631C159.175 150.979 163.746 169.052 161.229 187.489C158.715 205.905 149.109 224.843 129.68 241.917C121.802 248.84 109.904 253.407 96.3259 255.081C82.775 256.752 67.7266 255.516 53.702 251.013C25.7026 242.023 2 220.136 2 182.419V23.0738C4.12419 9.67213 16.2538 2.25548 29.0763 2.00639C41.8386 1.75846 54.4689 8.64593 57.5 23.123V93.9193Z" fill="url(#paint1_linear_23_2)" stroke="#0B8400" stroke-width="4" stroke-linejoin="round"/>
<path d="M34.6333 183.214C35.1653 206.087 57.462 211.362 68.5439 211.14C63.2246 214.465 40.6175 209.146 36.6281 207.816C33.0598 206.626 24.6596 209.811 22 211.14C39.2877 223.774 109.768 219.119 133.705 215.795C151.658 212.47 132.375 205.821 119.742 205.156C135.7 195.182 130.381 157.061 129.051 138H34.6333V183.214Z" fill="#1E1E1E"/>
<path d="M81 142.655C83 118.655 79.5 99.5582 63 95.0581C79.3333 91.2248 108.8 92.7582 98 99.5582C87.2 106.358 89 131.558 91.5 145.058C88.1667 155.058 79 166.655 81 142.655Z" fill="#1E1E1E"/>
<defs>
<linearGradient id="paint0_linear_23_2" x1="178" y1="180.5" x2="756" y2="180.5" gradientUnits="userSpaceOnUse">
<stop stop-color="#B0B66F"/>
<stop offset="1" stop-color="#CDDB3B"/>
</linearGradient>
<linearGradient id="paint1_linear_23_2" x1="81.9571" y1="0" x2="81.9571" y2="258.015" gradientUnits="userSpaceOnUse">
<stop stop-color="#7AC776"/>
<stop offset="1" stop-color="#CDDB3B"/>
</linearGradient>
</defs>
</svg>
